<svg width="17" height="17" viewBox="0 0 17 17" fill="none" xmlns="http://www.w3.org/2000/svg">
<path fill-rule="evenodd" clip-rule="evenodd" d="M0.810944 16.1893C0.33906 15.7174 0.33906 14.9523 0.810944 14.4804L14.4817 0.809718C14.9536 0.337835 15.7186 0.337835 16.1905 0.809718C16.6624 1.2816 16.6624 2.04668 16.1905 2.51856L2.51979 16.1893C2.0479 16.6612 1.28283 16.6612 0.810944 16.1893Z" fill="white"/>
<path fill-rule="evenodd" clip-rule="evenodd" d="M0.812186 0.808991C1.28407 0.337107 2.04914 0.337107 2.52103 0.808991L16.1918 14.4797C16.6636 14.9516 16.6636 15.7167 16.1918 16.1886C15.7199 16.6604 14.9548 16.6604 14.4829 16.1886L0.812186 2.51783C0.340302 2.04595 0.340302 1.28087 0.812186 0.808991Z" fill="white"/>
</svg>
