<svg width="29" height="29" viewBox="0 0 29 29" fill="none" xmlns="http://www.w3.org/2000/svg">
<path fill-rule="evenodd" clip-rule="evenodd" d="M3.625 14.4993C3.625 13.832 4.16599 13.291 4.83333 13.291H24.1667C24.834 13.291 25.375 13.832 25.375 14.4993C25.375 15.1667 24.834 15.7077 24.1667 15.7077H4.83333C4.16599 15.7077 3.625 15.1667 3.625 14.4993Z" fill="white"/>
<path fill-rule="evenodd" clip-rule="evenodd" d="M3.625 7.24935C3.625 6.582 4.16599 6.04102 4.83333 6.04102H24.1667C24.834 6.04102 25.375 6.582 25.375 7.24935C25.375 7.91669 24.834 8.45768 24.1667 8.45768H4.83333C4.16599 8.45768 3.625 7.91669 3.625 7.24935Z" fill="white"/>
<path fill-rule="evenodd" clip-rule="evenodd" d="M3.625 21.7493C3.625 21.082 4.16599 20.541 4.83333 20.541H24.1667C24.834 20.541 25.375 21.082 25.375 21.7493C25.375 22.4167 24.834 22.9577 24.1667 22.9577H4.83333C4.16599 22.9577 3.625 22.4167 3.625 21.7493Z" fill="white"/>
</svg>
