<svg width="150" height="16" viewBox="0 0 150 16" fill="none" xmlns="http://www.w3.org/2000/svg">
<path fill-rule="evenodd" clip-rule="evenodd" d="M10.9259 0.634534C10.1866 0.767598 9.56777 1.04094 8.92308 1.52085C8.53627 1.8015 8.33857 2.11311 7.10937 4.27591C6.68817 5.03183 6.18097 5.92167 5.99186 6.25321C5.80276 6.58475 5.60503 6.94286 5.54486 7.04893C5.48469 7.155 5.32995 7.42629 5.20101 7.65176C5.07207 7.87722 4.53061 8.84288 3.98907 9.7978C3.45613 10.7527 2.88021 11.7727 2.7083 12.0644C2.41604 12.5798 2.18387 12.9817 1.77127 13.7282C1.33288 14.4928 1.25558 14.6224 1.18681 14.6841C1.14383 14.7192 1.10938 14.7856 1.10938 14.8316C1.10938 14.8778 1.07501 14.9575 1.02344 15.009C0.980458 15.0605 0.9375 15.119 0.9375 15.1388C0.9375 15.1588 6.11221 15.175 12.4388 15.175C23.9142 15.175 23.9486 15.1748 24.4385 15.0743C25.7623 14.8036 26.5015 14.2487 27.2494 12.9566C28.2035 11.3038 28.8655 10.1161 28.9256 9.94247C29.0374 9.59124 29.0029 9.05529 28.8482 8.78503C28.5559 8.28235 27.8941 7.88797 27.0173 7.7005L26.6391 7.61772L27.0087 7.58351C27.5846 7.53107 28.3239 7.38675 28.8826 7.21663C29.7938 6.94346 30.5588 6.4467 31.0574 5.79694C31.2809 5.50984 32.3812 3.61566 32.5703 3.19085C32.6304 3.05822 32.6992 2.93882 32.7249 2.92559C32.7421 2.91235 32.7937 2.74507 32.8281 2.55399C32.8969 2.19485 32.8367 1.58902 32.7335 1.53143C32.6992 1.51569 32.6304 1.43558 32.5874 1.35332C32.467 1.17031 32.149 0.933584 31.8481 0.803701C31.255 0.555711 31.616 0.563702 21.0861 0.567055C13.1436 0.569547 11.2181 0.582358 10.9259 0.634534ZM40.6675 0.660236C39.3953 0.898169 38.6132 1.51148 37.8309 2.8894L37.6246 3.26314H46.4268C55.9252 3.26314 55.4696 3.25154 55.6329 3.50168C55.7704 3.70549 55.7876 3.66603 54.842 5.27286C54.3779 6.06789 54.3521 6.10639 54.0856 6.23739L53.802 6.37373L45.6101 6.3984C37.8824 6.4216 37.3926 6.42814 37.0917 6.51092C36.0344 6.8012 35.1661 7.43987 34.7363 8.25458C34.573 8.55183 33.0172 11.3133 32.8453 11.5942C32.7937 11.6805 32.7335 11.7509 32.7163 11.7509C32.6304 11.7509 32.0287 12.944 31.9599 13.2354C31.8653 13.6289 31.9083 14.0245 32.0889 14.3551C32.2694 14.6818 32.467 14.8404 32.9226 15.0156L33.2751 15.1509L43.1002 15.165C52.0743 15.1777 52.9595 15.172 53.3292 15.0991C53.5527 15.0553 53.7762 15.0031 53.8278 14.9833C53.8794 14.9635 54.0942 14.8792 54.3091 14.796C54.9624 14.5462 55.7188 13.8825 56.1314 13.1977C56.226 13.0518 56.3119 12.9216 56.3291 12.9084C56.3463 12.8951 56.4753 12.6889 56.6128 12.4502C56.7504 12.2115 57.0168 11.7449 57.2059 11.4134C57.6787 10.578 57.9538 10.1002 58.1858 9.6772C58.2976 9.47829 58.461 9.19617 58.5555 9.0503C58.6415 8.90443 58.8392 8.54633 58.9939 8.25458C59.1486 7.96284 59.4753 7.37076 59.7331 6.9389C59.9824 6.50705 60.1887 6.14293 60.1887 6.12969C60.1887 6.11645 60.3349 5.85136 60.5154 5.54044C60.8248 5.01592 60.928 4.83309 61.4437 3.91419C62.011 2.90659 62.0712 2.73209 62.0454 2.08663C62.0282 1.6344 62.011 1.57088 61.8477 1.3559C61.6328 1.07112 61.2975 0.850118 60.8419 0.699174L60.5068 0.586654L50.8279 0.57823C41.5615 0.570235 41.1231 0.573761 40.6675 0.660236ZM68.4666 0.912179C68.3634 1.10438 68.1914 1.40824 68.0797 1.58738C67.9765 1.76643 67.882 1.94222 67.882 1.97807C67.882 2.01382 67.8218 2.13863 67.7444 2.25528C67.6757 2.37193 67.16 3.27036 66.6012 4.25184C66.0425 5.23323 65.4407 6.29662 65.2602 6.61484C65.0711 6.93314 64.839 7.34548 64.7359 7.53116C64.6327 7.71683 64.4866 7.97935 64.4092 8.11456C64.3319 8.24977 64.2718 8.38533 64.2718 8.41593C64.2718 8.44653 64.2459 8.47154 64.2201 8.47154C64.1944 8.47154 64.0654 8.67234 63.9193 8.91767C63.7818 9.16299 63.5239 9.60783 63.352 9.9061C62.2431 11.8363 61.6242 12.9733 61.5469 13.2458C61.3148 14.0534 61.65 14.7331 62.4236 15.0367L62.7846 15.1749H72.5152C83.4233 15.175 82.5637 15.2035 83.5436 14.8131C83.9906 14.6342 84.1368 14.5433 84.5666 14.1757C85.1511 13.669 85.1338 13.6962 86.6639 11.0072C87.2742 9.92184 87.8158 9.0081 87.8501 8.97672C87.8931 8.94543 87.9704 8.82432 88.0306 8.70776C88.2197 8.34054 88.3573 8.06814 88.4776 7.8688C88.7269 7.41193 89.1825 6.61957 89.5006 6.06032C89.6983 5.72869 90.214 4.81728 90.6524 4.0348C91.0994 3.25231 91.5464 2.47104 91.6495 2.2986C91.7527 2.12626 91.8559 1.93087 91.8816 1.8646C91.9074 1.79833 92.0707 1.50203 92.2426 1.20616C92.4145 0.910287 92.552 0.644419 92.552 0.615365C92.552 0.577715 91.7183 0.5625 89.6638 0.5625H86.7757L86.6553 0.791578C86.5865 0.917507 86.4147 1.21596 86.2771 1.45466C86.1482 1.69337 85.8989 2.13829 85.727 2.44336C85.5637 2.74834 85.3402 3.14985 85.2285 3.33552C84.4978 4.58596 84.0938 5.29727 84.0938 5.33234C84.0938 5.35469 84.0336 5.4679 83.9562 5.58402C83.8273 5.77915 82.8044 7.58187 82.2456 8.59214C82.1167 8.83085 81.8589 9.2866 81.6784 9.60491C81.4979 9.92321 81.2657 10.3246 81.1711 10.4971C81.068 10.6695 80.8789 11.0112 80.7327 11.2564C80.5952 11.5018 80.4835 11.7136 80.4835 11.7272C80.4835 11.8115 80.0881 12.2316 80.0021 12.2323C79.9505 12.2328 79.899 12.2603 79.8818 12.2935C79.8646 12.3411 78.644 12.3565 74.1054 12.3668L68.3462 12.3797L68.2 12.2605C68.0109 12.0995 68.0195 11.9443 68.2602 11.5376C68.6556 10.8593 69.2488 9.82823 69.7301 8.95386C71.4837 5.82376 72.008 4.9126 72.1112 4.82622C72.1542 4.78848 72.2057 4.70888 72.2314 4.6494C72.2486 4.58983 72.3949 4.32413 72.5496 4.05886C73.4436 2.53439 73.7186 2.04726 73.7186 1.98511C73.7186 1.94695 73.7702 1.83374 73.839 1.73343C73.9077 1.6332 74.0882 1.32873 74.2429 1.05685L74.5266 0.5625H71.5954H68.6556L68.4666 0.912179ZM99.6952 0.63376C98.2425 0.897997 97.5463 1.44994 96.6008 3.09441C95.9131 4.29258 95.7325 4.59086 95.6723 4.64115C95.638 4.66968 95.552 4.81074 95.4747 4.95464C95.3973 5.09853 95.234 5.38993 95.1137 5.60216C94.4776 6.69014 93.893 7.71468 93.7211 8.03754C93.6179 8.23644 93.214 8.95265 92.8272 9.62897C92.449 10.3054 92.0363 11.0215 91.9246 11.2205C91.8128 11.4194 91.5894 11.8209 91.4174 12.1127C90.9533 12.9185 90.8931 13.1035 90.8931 13.6318C90.8931 14.0202 90.9188 14.1303 91.0392 14.3552C91.2111 14.6549 91.5119 14.8944 91.9074 15.0472L92.1739 15.1509L101.724 15.1635C112.434 15.1777 111.704 15.2006 112.641 14.818C113.474 14.4775 114.136 13.8533 114.764 12.8254C114.867 12.6604 114.944 12.5138 114.944 12.4999C114.944 12.4858 111.05 12.4744 106.297 12.4744H97.6408L97.4861 12.3744C97.3743 12.3015 97.3314 12.2302 97.3314 12.1108C97.3314 11.9273 97.3486 11.8925 97.9847 10.797C98.234 10.3651 98.4403 9.98536 98.4403 9.95304C98.4489 9.84378 98.8442 9.43995 99.042 9.3533C99.2225 9.27242 99.6866 9.26589 107.045 9.24242L114.858 9.21749L115.314 9.10772C116.706 8.77489 117.351 8.26129 118.151 6.83867C118.881 5.55016 119.277 4.87968 119.32 4.85467C119.405 4.80765 120.248 3.28231 120.368 2.9567C120.514 2.54041 120.532 1.89082 120.394 1.55094C120.282 1.28498 119.921 0.956621 119.577 0.812899C118.959 0.554765 119.268 0.562155 109.28 0.566281C101.87 0.569375 99.9789 0.582701 99.6952 0.63376ZM128.715 0.614935C127.933 0.74181 127.176 1.05599 126.695 1.45363C126.196 1.86735 125.947 2.24307 124.881 4.13124C124.606 4.61604 124.451 4.87581 123.351 6.78564C123.093 7.22428 122.715 7.89708 122.509 8.28063C122.302 8.66418 122.001 9.21122 121.838 9.49642C121.486 10.104 121.03 10.9034 120.738 11.4134C120.626 11.6123 120.342 12.1006 120.11 12.4984C119.878 12.8963 119.612 13.3575 119.526 13.5232C119.44 13.6891 119.345 13.8247 119.32 13.8247C119.302 13.8247 119.225 13.9386 119.148 14.0778C119.07 14.2172 118.907 14.5122 118.787 14.7335C118.666 14.9549 118.563 15.145 118.563 15.1559C118.563 15.1669 119.87 15.1703 121.46 15.1634L124.357 15.1509L124.666 14.5722C124.967 14.0165 125.148 13.6899 125.844 12.4744C126.016 12.1693 126.248 11.757 126.36 11.5581C126.48 11.3591 126.652 11.0553 126.755 10.8828C126.858 10.7105 126.961 10.5147 126.978 10.4479C126.996 10.381 127.064 10.2834 127.125 10.2309C127.176 10.1783 127.305 10.0184 127.4 9.87533C127.503 9.71828 127.658 9.56554 127.804 9.48955L128.027 9.36379L132.17 9.35047C136.253 9.33732 136.305 9.33844 136.554 9.4372C136.855 9.55617 136.932 9.64857 137.165 10.1451C137.268 10.3519 137.371 10.5646 137.397 10.6177C137.422 10.6707 137.508 10.8443 137.577 11.0035C137.646 11.1626 137.732 11.3579 137.775 11.4375C137.818 11.5171 138.093 12.1139 138.385 12.7637C138.686 13.4136 138.961 14.0104 139.004 14.09C139.047 14.1695 139.124 14.3539 139.185 14.4998C139.236 14.6458 139.331 14.8573 139.391 14.9701L139.494 15.175H142.271H145.047L145.004 15.0665C144.987 15.0069 144.918 14.8725 144.858 14.7681C144.798 14.6636 144.746 14.5548 144.746 14.5263C144.746 14.4477 142.992 10.767 142.941 10.7387C142.915 10.7251 142.829 10.5513 142.735 10.3524C142.649 10.1535 142.528 9.90387 142.468 9.7978C142.305 9.47915 142.219 9.28918 142.245 9.27431C142.262 9.26657 142.606 9.23485 143.027 9.20382C144.815 9.07067 145.941 8.6022 146.826 7.6276C147.11 7.32425 147.66 6.40183 148.881 4.22769C149.474 3.18226 149.517 3.10429 149.577 2.90143C149.68 2.60728 149.663 1.71847 149.56 1.5077C149.431 1.25541 149.087 0.95937 148.76 0.823556C148.107 0.549262 148.623 0.562069 138.394 0.567828C133.21 0.570665 128.852 0.591899 128.715 0.614935ZM26.5703 3.28515C26.725 3.41151 26.7595 3.6736 26.6563 3.83047C26.6219 3.87654 26.4413 4.18548 26.2522 4.51702C25.5044 5.837 25.4271 5.95597 25.2294 6.10012C25.1004 6.19373 24.9371 6.25725 24.7738 6.27591C24.6362 6.29207 21.6621 6.29894 18.155 6.29129L11.7855 6.27728L12.327 5.33406C12.6193 4.8153 12.9631 4.21333 13.0834 3.99629C13.3413 3.5389 13.5304 3.33303 13.7883 3.24054C13.9344 3.18621 15.0691 3.17392 20.2008 3.17065L26.4242 3.1667L26.5703 3.28515ZM114.239 3.28369C114.394 3.35091 114.54 3.53684 114.54 3.67454C114.54 3.71271 114.446 3.90156 114.334 4.09428C114.222 4.287 113.973 4.72685 113.775 5.07163C113.208 6.06634 113.182 6.11447 112.976 6.28209C112.873 6.36951 112.692 6.46381 112.572 6.49149C112.426 6.52518 110.363 6.54212 106.383 6.54229C100.486 6.54255 100.417 6.54143 100.452 6.44825C100.572 6.13527 102.093 3.60182 102.222 3.48939C102.558 3.21028 102.351 3.21939 108.463 3.21707C113.208 3.21527 114.102 3.22558 114.239 3.28369ZM143.491 3.35598C143.723 3.53658 143.689 3.72517 143.302 4.39247C143.121 4.71292 142.95 4.98687 142.924 5.00122C142.907 5.01549 142.726 5.3001 142.537 5.63371C142.159 6.2839 141.935 6.51461 141.6 6.59086C141.265 6.66736 129.213 6.6555 129.248 6.57874C129.299 6.48074 130.099 5.08203 130.563 4.28837C131.01 3.5132 131.156 3.36827 131.569 3.27122C131.698 3.24019 133.838 3.22575 137.551 3.231L143.336 3.23908L143.491 3.35598ZM23.4071 9.42405C23.2609 9.68261 23.0805 10.0028 23.0117 10.1354C22.9429 10.268 22.7796 10.5501 22.6592 10.7623C21.7653 12.286 21.7566 12.289 21.4214 12.4083C21.2666 12.4629 20.1492 12.4744 15.0175 12.4744H8.80272L8.65656 12.3559C8.5792 12.2868 8.51899 12.1816 8.51899 12.1028C8.51899 11.981 9.01761 11.0383 9.11216 10.9788C9.14655 10.9578 9.49893 10.3523 9.92012 9.60284C10.0663 9.34909 10.3672 9.10824 10.6509 9.02469C10.84 8.96959 11.9832 8.95772 17.2782 8.956L23.6735 8.95386L23.4071 9.42405ZM52.633 9.207C52.4696 9.49763 52.057 10.2211 51.3951 11.3691C51.0169 12.0221 50.888 12.1947 50.7075 12.3096L50.484 12.4502L44.5184 12.4629L38.5443 12.4757L38.4068 12.3566C38.2091 12.1931 38.2177 12.014 38.467 11.595C38.5788 11.4023 38.8281 10.9624 39.0172 10.6177C39.2149 10.2728 39.4211 9.91178 39.4899 9.81533C39.55 9.71889 39.6016 9.61462 39.6016 9.58367C39.6016 9.48946 39.9111 9.19316 40.0916 9.10979C40.1948 9.06655 40.3925 9.01669 40.53 8.99899C40.6762 8.98128 43.4955 8.96383 46.7877 8.9603L52.7791 8.95386L52.633 9.207Z" fill="white"/>
</svg>
