<svg width="131" height="26" viewBox="0 0 131 26" fill="none" xmlns="http://www.w3.org/2000/svg">
<path fill-rule="evenodd" clip-rule="evenodd" d="M1.19389 0.689246C0.721121 0.976004 0.750354 0.147106 0.750354 13.0089C0.750354 25.8707 0.721121 25.0418 1.19389 25.3286C1.42856 25.4711 1.52398 25.4724 12.3805 25.4726C19.546 25.4728 23.5405 25.4473 23.9377 25.3986C26.4855 25.0866 28.0233 24.0549 28.6396 22.2434L28.8373 21.6624V18.8848C28.8373 16.1684 28.8338 16.0971 28.674 15.6557C28.1702 14.2697 27.0296 13.274 25.6173 12.9884L25.1162 12.887L25.5287 12.8003C26.9101 12.5097 28.1874 11.2819 28.545 9.90047C28.7092 9.26748 28.7109 4.71434 28.5476 3.90719C28.2425 2.40016 27.3623 1.40348 25.8872 0.89443C24.8755 0.545181 24.8961 0.545782 12.7725 0.54561C1.52225 0.545439 1.42856 0.546641 1.19389 0.689246ZM38.3125 0.653059C36.2375 0.978498 35.0856 1.95825 34.6309 3.78556C34.526 4.2089 34.502 4.75955 34.4745 7.4357L34.4418 10.5874H37.3111H40.1795V7.73844V4.88952H48.9456H57.7116V7.73844V10.5874H60.5792H63.4468L63.4193 7.40011C63.3935 4.39853 63.3823 4.18045 63.237 3.65636C62.7978 2.07963 61.866 1.20259 60.1425 0.745721L59.5365 0.584894L49.2318 0.570797C40.8629 0.559278 38.8119 0.57475 38.3125 0.653059ZM69.5842 0.707297C69.451 0.796608 69.3014 0.948927 69.2524 1.04563C69.1819 1.1842 69.163 3.74215 69.1622 13.1051L69.1604 24.9886L69.4037 25.2307L69.647 25.4729H71.8088H73.9698L74.2131 25.2307L74.4563 24.9886V20.53V16.0715H77.1348H79.8141L85.1934 20.6367C88.1659 23.1592 90.7051 25.2619 90.8684 25.3359C91.1426 25.4595 91.3798 25.4699 93.9698 25.4713L96.7746 25.4729L96.9637 25.3106C97.2035 25.1057 97.2336 24.7006 97.029 24.444C96.9525 24.3478 94.7219 22.4372 92.0735 20.1982C89.4243 17.9593 87.2667 16.1188 87.2788 16.1083C87.2908 16.0979 88.2828 16.0678 89.4836 16.0416C91.2432 16.0032 91.8045 15.9662 92.3813 15.8509C94.1778 15.4915 95.2248 14.5684 95.6855 12.9376C95.8058 12.5134 95.8162 12.1272 95.8162 8.30818C95.8162 3.69521 95.8231 3.77782 95.3468 2.78113C94.7615 1.55528 93.5804 0.845948 91.7452 0.616782C91.3807 0.57131 87.2495 0.544922 80.4975 0.544922H69.8258L69.5842 0.707297ZM101.892 0.787067L101.648 1.02921V13.0089V24.9886L101.892 25.2307L102.135 25.4729H104.256C106.614 25.4729 106.688 25.4602 106.898 25.0201C107.004 24.7997 107.016 24.2213 107.016 19.3238V13.873L115.155 19.5756C119.632 22.7121 123.399 25.322 123.525 25.3755C123.708 25.4529 124.409 25.4729 126.948 25.4729H130.139L130.358 25.2559C130.545 25.0691 130.57 25.0029 130.533 24.7789C130.51 24.636 130.418 24.4478 130.328 24.3609C130.238 24.2739 126.38 21.5381 121.757 18.2813C117.132 15.0245 113.348 12.3311 113.348 12.2961C113.348 12.261 116.971 9.86007 121.398 6.96069C126.552 3.58562 129.494 1.61768 129.574 1.49081C129.753 1.20603 129.729 0.990702 129.49 0.753112L129.281 0.544922H126.068H122.854L122.538 0.70876C122.364 0.798844 118.808 3.16967 114.636 5.97741L107.051 11.0823L107.016 6.08074C106.982 1.45436 106.97 1.06523 106.853 0.894171C106.626 0.561512 106.503 0.544922 104.25 0.544922H102.135L101.892 0.787067ZM21.9976 4.92992C22.5082 5.08087 22.9577 5.4994 23.1271 5.98111C23.2354 6.28996 23.256 6.58574 23.256 7.80962C23.256 9.57005 23.2001 9.83042 22.7231 10.3057C22.1222 10.9032 22.6087 10.8722 13.8229 10.8722H6.11759V7.84529V4.81826H13.8685C20.6979 4.81826 21.6649 4.8315 21.9976 4.92992ZM89.2017 4.93207C89.4888 5.01614 89.6761 5.13356 89.9177 5.38112C90.418 5.89472 90.4498 6.07463 90.4498 8.41503V10.4093L90.2469 10.8194C90.0269 11.2666 89.7535 11.513 89.2635 11.7077C88.9687 11.8248 88.4392 11.8351 81.737 11.8535L74.5277 11.8732V8.34583V4.81826H81.6708C88.0043 4.81826 88.8578 4.83116 89.2017 4.93207ZM22.3251 15.3449C22.7609 15.545 22.9723 15.7347 23.1735 16.1071C23.3162 16.3718 23.3291 16.5116 23.3497 18.0774C23.3712 19.6842 23.3652 19.7799 23.2148 20.1282C23.1228 20.3401 22.9345 20.5976 22.766 20.7413C22.2039 21.2197 22.5933 21.1995 13.9398 21.1995H6.11759V18.1711V15.1426L14.043 15.1619L21.9675 15.1812L22.3251 15.3449ZM34.4719 18.6177C34.5003 21.6042 34.5114 21.8399 34.6558 22.3614C35.0934 23.9475 36.0449 24.834 37.7847 25.2748L38.426 25.4373H48.9456H59.4643L60.109 25.2742C61.4895 24.9246 62.3895 24.2717 62.8923 23.2549C63.3582 22.3134 63.3823 22.0992 63.4167 18.5821L63.4476 15.4304H60.5792H57.7116V18.2794V21.1283H48.9456H40.1795V18.2794V15.4304H37.3111H34.4427L34.4719 18.6177Z" fill="white"/>
</svg>
