<svg width="173" height="37" viewBox="0 0 173 37" fill="none" xmlns="http://www.w3.org/2000/svg">
<path fill-rule="evenodd" clip-rule="evenodd" d="M15.7576 0.663586C8.34797 2.0452 2.70053 7.29812 0.852422 14.5082C0.2765 16.7459 0.28506 20.547 0.869578 22.8422C1.67759 26.0262 3.49133 29.1499 5.88097 31.4874C8.40815 33.9509 11.6316 35.6329 15.2419 36.3743C17.7347 36.8863 21.3277 36.7568 23.7174 36.0689C30.0095 34.2561 34.7802 29.5621 36.5853 23.4034C37.2816 21.0388 37.4105 17.5034 36.8862 15.0366C35.4335 8.13157 30.0782 2.59267 23.2445 0.932636C21.1558 0.424793 17.7003 0.300669 15.7576 0.663586ZM23.4251 1.65838C29.7345 3.47245 34.4106 8.2379 36.0266 14.5082C36.3102 15.594 36.379 16.5018 36.3704 18.8183C36.3618 21.4694 36.3103 21.911 35.8547 23.392C32.7602 33.366 22.4022 38.541 12.5514 35.0326C8.41676 33.5586 4.43685 29.9642 2.58014 26.023C1.06727 22.8169 0.508575 18.6342 1.16186 15.4443C2.61456 8.41017 7.8064 3.0712 14.7518 1.47684C16.8922 0.986446 21.4223 1.08126 23.4251 1.65838ZM133.718 2.70037C128.209 3.65769 126.936 5.14589 126.928 10.6567C126.919 13.0516 126.962 13.4072 127.349 14.2331C128.217 16.0932 129.756 17.2002 131.733 17.3818C135.575 17.7356 138.42 14.5288 137.38 11.0047C137.028 9.81576 136.039 8.60435 134.956 8.04227C134.372 7.7409 133.856 7.64127 132.876 7.64075C131.527 7.64024 130.701 7.9245 129.85 8.69254L129.429 9.07007V8.43492C129.429 8.08567 129.618 7.4317 129.85 6.98162C130.426 5.86485 131.389 5.41881 133.994 5.06019C136.89 4.66332 136.693 4.78126 136.693 3.39982C136.693 2.56662 136.624 2.2264 136.461 2.24161C136.332 2.25356 135.102 2.45986 133.718 2.70037ZM46.3502 10.7484V17.2593H47.6568H48.9634V11.9405V6.62172H51.9375H54.9203V5.42964V4.23748H50.6395H46.3502V10.7484ZM17.6658 5.25902C15.345 5.65279 14.0213 6.01192 12.9124 6.54693C12.199 6.893 11.7777 7.12707 11.984 7.06672C14.1588 6.42754 15.431 6.2135 17.5799 6.12376C20.3908 6.00642 22.385 6.31527 24.2847 7.16076C25.5741 7.73909 26.0898 8.22321 25.1872 8.02017C22.5999 7.43531 21.3535 7.31884 18.6888 7.41073C15.5255 7.5199 13.2047 7.99507 10.3079 9.1274C8.51132 9.83029 8.24483 9.98871 7.96976 10.4859C7.82363 10.7581 7.92679 10.7434 8.68323 10.3847C12.2505 8.69056 18.8778 7.8113 22.6944 8.5257C25.7631 9.09973 26.1242 9.31308 25.3076 10.0643C24.9637 10.3786 24.8176 10.3867 23.3048 10.1752C21.0269 9.85737 16.7376 9.86605 14.8465 10.1923C11.2878 10.8065 6.19042 13.1455 5.88097 14.3073C5.77782 14.678 5.80358 14.6751 6.55142 14.2247C8.77775 12.8822 11.3823 11.8678 14.1244 11.2742C15.3794 11.0039 16.4366 10.9353 19.1529 10.9479C21.0784 10.9569 22.8062 11.0484 23.0641 11.1552C23.5282 11.3428 23.5197 11.3498 22.789 11.5457C22.3764 11.6554 20.7862 11.9609 19.2476 12.2244C11.6316 13.531 7.11015 15.2587 5.74341 17.3846C5.11591 18.3502 4.9956 19.5112 5.45118 20.1129C5.64889 20.3711 5.69187 20.7361 5.6145 21.4428C5.51135 22.3783 5.52852 22.4437 6.18181 23.1037C6.75773 23.6849 6.85231 23.8773 6.74916 24.3513C6.6804 24.699 6.74917 25.1177 6.92109 25.4551C7.21335 26.0019 8.59725 27.3467 8.87231 27.3467C8.95827 27.3467 9.13019 27.6326 9.25053 27.9821C9.55139 28.7798 10.6259 29.8022 12.1216 30.6991C15.5255 32.7363 20.5971 33.021 24.0698 31.3689C24.6973 31.0709 25.0412 30.8748 24.8349 30.9329C23.1587 31.4092 21.577 31.6147 19.5312 31.6205C17.4682 31.6264 17.0298 31.5692 15.7061 31.1261C14.8895 30.8504 13.7548 30.3706 13.1961 30.0596C12.0184 29.4088 10.9095 28.6154 11.0299 28.501C11.0729 28.4581 11.6917 28.6668 12.4052 28.965C15.6114 30.3099 19.6859 30.7844 23.0469 30.2059C25.1357 29.8477 28.1786 28.8869 28.5138 28.4829C28.7115 28.2407 28.703 28.2129 28.4451 28.3069C28.2732 28.3685 27.1471 28.6469 25.9264 28.9257C23.9838 29.3725 23.3564 29.4321 20.6487 29.4279C17.9324 29.4238 17.3564 29.3672 15.7576 28.9456C13.8321 28.4405 10.7462 27.1973 10.6517 26.8881C10.6173 26.7872 10.6602 26.5955 10.7462 26.4622C10.8751 26.2699 11.3566 26.3724 13.1187 26.9602C15.9038 27.8888 17.451 28.1297 20.7346 28.1448C24.0354 28.16 26.6571 27.6428 29.6313 26.3899C30.5253 26.014 30.8777 25.547 30.0955 25.7758C25.7546 27.0456 21.7918 27.5478 18.8263 27.2021C16.7891 26.9642 14.7089 26.4645 13.2219 25.8581C12.431 25.5313 12.2935 25.4184 12.5428 25.282C13.282 24.8734 13.9439 24.8145 14.9066 25.0724C17.6659 25.8104 20.7862 26.0349 23.3735 25.681C27.0439 25.1775 32.0124 23.3887 32.0124 22.5667C32.0124 22.4908 31.3504 22.7024 30.5424 23.0371C27.7746 24.1871 24.0612 24.9598 21.2934 24.9605C20.0126 24.9609 16.7891 24.5304 16.5914 24.3311C16.5312 24.2748 16.5656 24.2287 16.6602 24.2287C17.1588 24.2287 23.4165 23.0709 25.1185 22.6655C28.8749 21.767 31.9092 19.8959 32.3819 18.1827C32.5968 17.3987 32.4937 16.9886 31.9608 16.3989C31.6513 16.0624 31.6256 15.9076 31.7889 15.4445C32.0639 14.6636 31.7373 13.6561 30.9637 12.8937C30.5339 12.472 30.3275 12.099 30.3275 11.7393C30.3275 11.088 29.3133 9.91883 28.1701 9.25841C27.7317 9.00491 27.319 8.64449 27.2588 8.45762C26.958 7.52832 24.7231 6.14378 22.6343 5.59322C21.6372 5.33165 18.4825 5.1195 17.6658 5.25902ZM57.3787 7.50778C56.4246 7.84301 55.1094 8.73234 54.9719 9.12887C54.9375 9.23511 55.1954 9.66353 55.5478 10.0811L56.1925 10.8405L56.7254 10.409C57.5506 9.73015 57.9976 9.55625 58.9173 9.55625C60.0262 9.55625 60.6967 10.1416 60.6967 11.1069V11.7571H58.7799C57.1553 11.7571 56.734 11.8209 56.0377 12.1697C54.9203 12.7329 54.5077 13.3439 54.4906 14.4579C54.4648 16.2465 55.8315 17.4466 57.8859 17.4386C58.9088 17.4346 60.3271 16.9656 60.5936 16.5448C60.8085 16.19 61.0663 16.3267 61.0663 16.8007C61.0663 17.2427 61.1093 17.2593 62.2783 17.2593H63.4904V13.8936C63.4904 10.3417 63.3786 9.70075 62.6136 8.68343C61.6337 7.37935 59.2612 6.84658 57.3787 7.50778ZM68.1063 7.41718C67.2296 7.66199 65.7167 8.52827 65.7339 8.77936C65.7339 8.85363 66.0605 9.26846 66.4387 9.70135L67.1436 10.4883L67.6679 10.0811C68.2954 9.59399 70.0404 9.38219 70.4702 9.73943C70.814 10.0138 70.8398 10.6818 70.5303 10.9868C70.41 11.1079 69.9029 11.2069 69.4129 11.2069H68.5189V12.2156V13.2244H69.5418C70.3154 13.2244 70.6592 13.3133 70.9429 13.5911C71.3899 14.0299 71.3986 14.1276 71.0376 14.6296C70.5046 15.3832 68.6564 15.3146 67.539 14.4994L66.9802 14.0985L66.2152 14.8622L65.4417 15.6259L66.1293 16.2474C67.2725 17.2911 69.731 17.7449 71.5533 17.2483C73.728 16.654 74.6392 14.0242 73.1521 12.656L72.602 12.1503L72.9801 11.541C73.556 10.6209 73.5045 9.19875 72.877 8.46329C72.6019 8.14937 72.1464 7.76823 71.8455 7.61651C71.0805 7.22824 69.155 7.12552 68.1063 7.41718ZM92.2865 7.43351C91.8825 7.58075 91.3152 7.87353 91.0229 8.08404L90.4985 8.46681V7.91109V7.35537H89.2865H88.0745V14.0496V20.744H89.3811H90.6877V18.5406V16.3371L91.3925 16.7962C92.2005 17.3242 93.4555 17.543 94.6589 17.3655C96.4727 17.097 98.166 15.3225 98.4754 13.3608C98.9826 10.1294 97.1001 7.51697 94.0916 7.25798C93.3867 7.19798 92.7592 7.25944 92.2865 7.43351ZM103.942 7.44417C102.266 7.9606 100.839 9.36276 100.392 10.9353C99.7304 13.2729 100.762 15.583 103.005 16.8067C103.891 17.2905 104.183 17.351 105.584 17.351C106.994 17.351 107.286 17.2905 108.172 16.8061C110.75 15.3974 111.687 12.6319 110.415 10.1316C109.22 7.78473 106.504 6.65661 103.942 7.44417ZM113.226 12.2156V17.2593H114.533H115.831V14.9667C115.831 13.7058 115.899 12.6772 115.977 12.6811C116.054 12.685 116.613 13.2596 117.232 13.958C117.962 14.791 118.487 15.2303 118.753 15.2348C119.028 15.2397 119.544 14.8189 120.335 13.9475L121.512 12.6533L121.607 14.9104L121.701 17.1676L123.051 17.2215L124.401 17.2754V12.2114V7.14761L123.962 7.20572C123.679 7.24371 122.724 8.12032 121.229 9.73969C119.965 11.1014 118.882 12.2347 118.822 12.2578C118.77 12.2811 117.67 11.1467 116.389 9.73711C114.713 7.88487 113.948 7.17383 113.647 7.17305L113.226 7.17194V12.2156ZM142.564 7.33259C141.704 7.55566 140.758 8.07398 140.105 8.68455L139.512 9.23898L140.174 10.0149L140.827 10.7907L141.764 10.1736C143.561 8.98239 145.452 9.56356 145.452 11.3072C145.452 11.7552 145.443 11.7571 143.544 11.7612C141.429 11.7656 140.518 12.0438 139.675 12.9399C139.289 13.3522 139.211 13.6207 139.211 14.5095C139.211 15.8072 139.598 16.4283 140.801 17.03C142.117 17.6938 144.291 17.4886 145.28 16.6064C145.624 16.2966 145.641 16.3026 145.641 16.7808C145.641 17.2752 145.641 17.276 146.896 17.2219L148.151 17.1676L148.202 14.2331C148.28 9.89183 147.85 8.55518 146.114 7.7268C145.194 7.28858 143.475 7.0975 142.564 7.33259ZM76.152 12.304V17.2593H77.5532H78.9543V13.4994V9.73969H80.7164H82.4872V13.5075V17.2754L83.8367 17.2215L85.1863 17.1676V12.3074V7.44709L80.6735 7.39792L76.152 7.34875V12.304ZM150.85 12.2993V17.2593H152.251H153.644V15.2352V13.2111L155.466 13.2636L157.28 13.3161L157.331 15.2877L157.383 17.2593H158.681H159.979V12.3074V7.35537H158.681H157.374V9.18947V11.0235H155.518H153.661L153.609 9.23528L153.558 7.44709L152.208 7.39311L150.85 7.33921V12.2993ZM162.962 12.3074V17.2593H164.26H165.558L165.609 14.6901L165.661 12.1208L167.621 14.681L169.572 17.2411L171.11 17.2503C171.953 17.2553 172.649 17.2006 172.649 17.1287C172.649 17.0568 171.764 15.853 170.681 14.4536C168.979 12.249 168.747 11.8686 168.961 11.608C169.09 11.4426 169.941 10.4386 170.844 9.37703L172.494 7.44709L171.059 7.39311C170.182 7.3601 169.537 7.42027 169.374 7.54904C169.236 7.66439 168.343 8.70561 167.388 9.86287L165.661 11.9671L165.609 9.66129L165.558 7.35537H164.26H162.962V12.3074ZM94.7105 10.0463C95.2606 10.3986 95.6388 11.0592 95.8108 11.9739C95.9655 12.8027 95.4067 14.157 94.7191 14.601C93.5672 15.3389 91.8395 15.0428 91.1261 13.9881C90.6361 13.2642 90.6532 11.3988 91.1604 10.7166C92.0028 9.58849 93.55 9.29631 94.7105 10.0463ZM106.521 9.85229C109.598 11.0646 108.051 15.7264 104.854 14.8787C102.49 14.2504 102.387 10.4232 104.716 9.7574C105.567 9.5168 105.679 9.52307 106.521 9.85229ZM28.0754 10.5714C28.3935 10.9279 28.6514 11.2671 28.6514 11.3248C28.6514 11.4413 27.9981 11.3001 27.2675 11.0272C26.8463 10.8678 26.8204 10.8045 27.0095 10.3867C27.1299 10.1317 27.2846 9.92304 27.362 9.92304C27.4394 9.92304 27.7574 10.2149 28.0754 10.5714ZM133.005 10.1129C134.879 10.6251 135.395 13.1508 133.882 14.4031C131.905 16.0413 128.991 14.093 129.799 11.6753C130.091 10.8039 131.097 10.0578 132.137 9.94539C132.231 9.93421 132.627 10.0096 133.005 10.1129ZM27.1299 12.1408C27.766 12.3517 28.2817 12.5975 28.2817 12.6868C28.2817 12.7761 28.0669 12.9898 27.8004 13.1616C27.2846 13.4929 27.4479 13.5112 24.852 12.8337L24.1213 12.6434L24.852 12.2174C25.7717 11.6808 25.746 11.6817 27.1299 12.1408ZM60.6967 13.8804C60.6967 14.1583 60.4732 14.5741 60.1466 14.8891C59.6996 15.3364 59.4504 15.4252 58.6853 15.4252C57.5765 15.4252 57.0435 14.9841 57.2326 14.2326C57.3873 13.6194 57.8944 13.4337 59.4417 13.4193C60.6709 13.408 60.6967 13.418 60.6967 13.8804ZM145.452 13.695C145.452 14.1164 145.091 14.7388 144.635 15.1002C144.119 15.512 142.607 15.5349 142.203 15.1371C141.781 14.7233 141.842 14.0262 142.323 13.6933C142.916 13.2845 145.452 13.2858 145.452 13.695ZM23.6142 13.7852C24.2675 13.8905 24.9293 14.0447 25.0841 14.1278C25.4193 14.3127 23.4852 14.7661 18.4137 15.6923C12.3536 16.7975 9.12158 17.7829 7.46258 19.0297C6.93823 19.4187 6.79215 19.4613 6.65462 19.2555C6.41394 18.9006 6.62881 18.1635 7.11017 17.6569C8.31359 16.3861 13.6344 14.756 19.4366 13.8799C21.5426 13.5611 22.1271 13.5479 23.6142 13.7852ZM30.3361 13.9723C30.6284 14.51 30.4307 14.9459 30.0095 14.7058C29.1155 14.2049 29.0983 14.1731 29.4937 13.8793C29.9923 13.5112 30.0954 13.523 30.3361 13.9723ZM28.66 15.4289C29.0726 15.6328 29.3992 15.8434 29.3992 15.8972C29.3992 15.9509 28.8749 16.2342 28.2388 16.5271C26.6314 17.262 22.746 18.2289 18.3191 18.9961C13.9267 19.7565 11.4597 20.3588 10.1789 20.9852C9.28493 21.4195 9.22474 21.4263 8.70899 21.1376C8.40813 20.9716 8.16745 20.772 8.16745 20.6942C8.16745 20.6162 8.56288 20.3042 9.05284 20.0005C10.6775 18.9848 12.9382 18.4027 21.7747 16.7274C23.3649 16.4252 25.3419 15.9327 26.15 15.6332C26.9666 15.3335 27.6972 15.0815 27.7746 15.0735C27.8605 15.0652 28.256 15.2251 28.66 15.4289ZM30.7058 17.6014C30.7058 19.2972 27.5339 20.6241 20.365 21.9271C18.4223 22.2811 16.0585 22.7485 15.1129 22.9658L13.3937 23.3607L12.3623 22.9482C11.795 22.7211 11.3307 22.4746 11.3307 22.4002C11.3307 22.168 13.9181 21.5057 16.7375 21.0156C24.0182 19.7487 26.8634 19.0228 28.9522 17.9016C29.7602 17.4647 30.4909 17.1003 30.5682 17.0916C30.637 17.083 30.7058 17.3123 30.7058 17.6014ZM7.71189 22.1072C8.01275 22.3246 8.02994 22.4117 7.82364 22.6116C7.62594 22.8114 7.53136 22.7917 7.31647 22.4972C6.8265 21.8488 7.05001 21.6288 7.71189 22.1072ZM11.4855 23.9638C11.5199 23.9938 11.2877 24.1515 10.9697 24.3142C10.411 24.5972 10.3594 24.5906 9.63736 24.1662C8.88092 23.7247 8.88094 23.7203 9.28495 23.4424C9.64598 23.1886 9.7663 23.1973 10.5571 23.5362C11.0299 23.7416 11.4511 23.934 11.4855 23.9638ZM48.8688 28.9309C47.5365 31.9248 46.419 34.4439 46.3846 34.5287C46.3502 34.6135 46.8746 34.6829 47.5536 34.6829C48.7743 34.6829 48.7829 34.6788 49.0923 34.0409L49.4018 33.399H51.7742H54.1467L54.3616 34.0409L54.5765 34.6829H55.7713C56.4332 34.6829 56.9662 34.6209 56.9662 34.5453C56.9662 34.4698 55.883 31.973 54.5593 28.9973C52.4619 24.2764 52.1008 23.5804 51.7226 23.5371C51.3186 23.4912 51.1038 23.9096 48.8688 28.9309ZM9.33652 25.6418C9.20758 25.973 8.9067 25.9381 8.60584 25.5584C8.16745 24.9861 8.305 24.7682 8.88952 25.1003C9.19038 25.2683 9.3881 25.5106 9.33652 25.6418ZM78.1119 26.5886C76.3412 27.385 75.4128 28.7369 75.4128 30.5283C75.4128 32.2797 76.2982 33.7169 77.8712 34.5156C78.7308 34.9536 80.7164 34.9879 81.7049 34.5818C82.5731 34.2252 83.5359 33.3297 84.0001 32.4435C84.4642 31.545 84.4728 29.7273 84.0001 28.7147C83.3468 27.2946 81.6018 26.2543 79.8826 26.2543C79.2895 26.2543 78.5417 26.3946 78.1119 26.5886ZM100.882 28.5837L98.5099 30.9212V28.6754V26.4296H97.2978H96.0858V30.6537C96.0858 34.3494 96.1288 34.8918 96.3867 34.9899C96.593 35.0691 97.4182 34.3812 99.1804 32.6483L101.673 30.1945V32.4388V34.6829H102.791H103.908V30.4645C103.908 26.5648 103.891 26.2462 103.581 26.2462C103.401 26.2462 102.189 27.298 100.882 28.5837ZM107.699 26.4718C107.364 26.5752 106.822 26.89 106.487 27.171L105.868 27.6822L106.495 28.3242L107.123 28.9663L107.707 28.6156C108.361 28.2227 109.676 28.1475 110.02 28.4837C110.613 29.0653 109.977 29.7309 108.833 29.7309C108.421 29.7309 108.378 29.804 108.378 30.5563V31.3815H109.143C110.527 31.3815 111.103 32.1249 110.2 32.7467C109.607 33.1574 108.593 33.0948 107.699 32.5915L106.925 32.1553L106.315 32.773C105.713 33.388 105.713 33.3928 106.066 33.7884C107.071 34.9026 109.96 35.2971 111.49 34.529C112.298 34.1253 112.856 33.2517 112.856 32.3993C112.856 31.8111 112.401 30.9098 111.997 30.687C111.739 30.5417 111.747 30.457 112.091 29.8983C112.848 28.6791 112.409 27.2469 111.103 26.6211C110.243 26.2117 108.73 26.1453 107.699 26.4718ZM119.561 28.5387C118.28 29.7997 117.171 30.8313 117.094 30.8313C117.017 30.8313 116.948 29.8409 116.948 28.6304V26.4296H115.831H114.713V30.6537C114.713 34.3494 114.756 34.8918 115.014 34.9899C115.22 35.0691 116.045 34.3812 117.808 32.6483L120.3 30.1945V32.4388V34.6829H121.418H122.535V30.4645C122.535 26.5556 122.518 26.2462 122.209 26.2462C122.028 26.2462 120.833 27.2778 119.561 28.5387ZM58.6423 30.5563V34.6829H61.3672C63.5162 34.6829 64.221 34.6193 64.7367 34.3766C65.5877 33.9793 66.0949 33.1492 66.0949 32.1469C66.0949 31.5098 65.9832 31.2453 65.5362 30.8048C64.9947 30.2685 64.986 30.2437 65.2783 29.6901C65.8628 28.5888 65.2439 27.2399 63.9116 26.6811C63.5162 26.5129 62.5448 26.4296 60.9804 26.4296H58.6423V30.5563ZM67.0319 27.3381V28.247L68.2868 28.3011L69.5418 28.3554L69.5934 31.5191L69.645 34.6829H70.7624H71.8713V31.4733V28.2637H73.1779H74.4759V27.3467V26.4296H70.7538H67.0319V27.3381ZM86.9227 28.9514C86.8281 31.7918 86.553 32.7766 85.8138 32.8798C85.4184 32.9341 85.3754 33.0362 85.3754 33.8575V34.7746L86.2522 34.8301C87.0258 34.8791 87.2063 34.8146 87.7909 34.2799C88.5731 33.5597 88.8996 32.4768 89.0973 29.9601L89.2349 28.2637H90.3352H91.4269V31.4733V34.6829H92.5443H93.6704V30.5563V26.4296H90.3352H87L86.9227 28.9514ZM124.959 30.5563V34.6829H126.077H127.194V33.0322V31.3815H128.776H130.366V33.0322V34.6829H131.484H132.601V30.5563V26.4296H131.484H130.366V27.9959V29.5623L128.827 29.5089L127.289 29.4558L127.237 27.9427L127.177 26.4296H126.068H124.959V30.5563ZM135.016 30.5563V34.6829H136.228H137.441V31.4733V28.2637H139.4H141.352V27.3467V26.4296H138.188H135.016V30.5563ZM52.565 29.7768L53.2183 31.3815H51.7226C50.5965 31.3815 50.2441 31.3243 50.3215 31.1523C50.3731 31.0263 50.6826 30.2395 51.0178 29.4042C51.353 28.5688 51.6969 27.9498 51.7656 28.0287C51.843 28.1074 52.204 28.8942 52.565 29.7768ZM62.88 28.1943C63.5075 28.3596 63.6279 28.9954 63.1121 29.407C62.7941 29.6608 62.4417 29.734 61.7368 29.6935C60.8514 29.6427 60.7826 29.6056 60.731 29.1195C60.6279 28.264 60.7913 28.0801 61.6681 28.0828C62.1064 28.0841 62.6479 28.1344 62.88 28.1943ZM80.9657 28.6353C81.5846 29.0088 82.1175 29.9405 82.1175 30.6602C82.1175 31.3168 81.533 32.2998 80.9829 32.5818C79.9858 33.0903 78.6621 32.8256 78.1205 32.0081C77.3383 30.8317 77.7337 29.1818 78.9543 28.585C79.7881 28.1707 80.2093 28.1811 80.9657 28.6353ZM63.4904 31.4348C64.0491 31.7132 64.178 32.3257 63.7654 32.7342C63.5419 32.9557 63.1035 33.0322 62.0806 33.0322H60.6967V32.2375C60.6967 31.8003 60.7483 31.3876 60.8171 31.3205C61.032 31.1088 63.0004 31.193 63.4904 31.4348Z" fill="white"/>
</svg>
