<svg width="138" height="32" viewBox="0 0 138 32" fill="none" xmlns="http://www.w3.org/2000/svg">
<path fill-rule="evenodd" clip-rule="evenodd" d="M14.0909 1.01515C11.5568 1.25833 8.98064 2.24006 6.8609 3.77081C6.12767 4.30057 5.8131 4.57083 5.06183 5.3197C2.72375 7.64788 1.26243 10.5997 0.76731 13.9933C0.629777 14.9342 0.629797 17.0477 0.766471 17.9491C1.2848 21.3695 2.67557 24.2346 4.93628 26.5387C7.33538 28.9845 10.3345 30.4876 13.7445 30.9522C14.0668 30.9962 14.8516 31.0258 15.6502 31.0239C16.8588 31.0211 17.1072 31.0033 17.916 30.8618C20.4123 30.4251 22.5389 29.515 24.4876 28.0501C25.183 27.5274 26.5359 26.209 27.1127 25.4911C29.5582 22.4503 30.7402 18.4977 30.3766 14.5767C29.9399 9.85641 27.2253 5.5431 23.1414 3.07824C21.5039 2.09032 19.7375 1.45027 17.7588 1.1281C16.8957 0.987645 14.9891 0.92902 14.0909 1.01515ZM81.9689 1.01851C76.1168 1.444 70.7728 3.65099 67.2459 7.09887C64.5296 9.75352 63.0786 13.0236 63.2153 16.1811C63.3004 18.1267 63.664 19.556 64.4944 21.2065C65.709 23.6212 67.943 25.9098 70.698 27.5624C78.0432 31.968 88.5335 32.2255 96.2818 28.1902C99.1623 26.6902 101.546 24.6079 103.02 22.3046C103.629 21.354 104.203 20.1087 104.487 19.1229C104.939 17.5575 105.031 16.1683 104.799 14.4491C103.906 7.83966 96.8431 2.33479 87.7909 1.19145C87.2674 1.12526 86.474 1.04507 86.0296 1.01326C85.096 0.946472 82.9204 0.949309 81.9689 1.01851ZM37.4458 1.76944C36.171 2.14972 35.2118 3.20125 34.9685 4.48469C34.8611 5.05434 34.8619 5.29494 34.9762 5.8143C35.265 7.12998 36.2252 8.13166 37.5696 8.52131C37.8816 8.61173 38.4257 8.6248 43.0572 8.65308L48.1984 8.68445L40.646 18.748C36.4925 24.2831 33.0525 28.9007 33.0009 29.0095C32.8668 29.2912 32.9175 29.7128 33.117 29.9761C33.4324 30.3939 32.2746 30.3609 46.0159 30.3439L58.4205 30.3286L58.8538 30.1674C59.9162 29.7721 60.7406 28.926 61.0543 27.9074C61.1953 27.4488 61.2228 26.5704 61.1102 26.0989C60.8128 24.8547 59.9893 23.9646 58.7214 23.5174C58.3647 23.3913 58.3372 23.3906 52.1473 23.3592L45.9316 23.3277L53.5175 13.217C58.9406 5.98966 61.1213 3.04059 61.1652 2.87624C61.2425 2.58656 61.1618 2.25502 60.9537 2.00514C60.6383 1.62623 61.5881 1.65408 49.1387 1.6589C38.3578 1.66319 37.7836 1.66861 37.4458 1.76944ZM110.425 1.78035C110.309 1.84809 110.153 2.01158 110.078 2.1437L109.941 2.38378V14.8685C109.941 26.7693 109.947 27.3707 110.047 27.7277C110.417 29.0445 111.343 29.9882 112.547 30.2754C114.361 30.7082 116.117 29.7237 116.716 27.9366L116.872 27.4698L116.902 21.2939L116.931 15.118L126.334 22.6501C131.505 26.7929 135.812 30.2218 135.904 30.27C136.118 30.3817 136.555 30.3828 136.767 30.2722C136.997 30.152 137.22 29.8668 137.29 29.6006C137.331 29.4452 137.346 25.4782 137.335 16.9873C137.319 5.45087 137.312 4.5777 137.219 4.26584C136.838 2.98695 135.871 2.02645 134.677 1.74227C134.247 1.63973 133.488 1.62915 133.063 1.71958C132.567 1.82505 131.953 2.16081 131.527 2.55957C131.075 2.9824 130.767 3.47898 130.547 4.1339L130.389 4.60065L130.36 10.746L130.331 16.8913L120.929 9.36087C115.757 5.21904 111.45 1.79075 111.357 1.74245C111.114 1.61497 110.676 1.63276 110.425 1.78035ZM16.3851 8.01793C17.653 8.16071 19.0172 8.66632 20.0229 9.36662C20.2679 9.53691 20.7105 9.91031 21.008 10.1965C22.2088 11.3539 22.9403 12.6455 23.3194 14.2774C23.4518 14.8471 23.4698 15.0558 23.4724 15.9769C23.475 16.7685 23.4501 17.149 23.3727 17.5229C22.8123 20.2216 21.0527 22.3894 18.5745 23.4337C16.9868 24.1027 15.2651 24.2141 13.5236 23.7605C11.3299 23.1893 9.51619 21.7102 8.47351 19.6431C7.88384 18.4754 7.61388 17.3438 7.6113 16.0353C7.60959 15.1411 7.69044 14.4915 7.889 13.798C8.95747 10.0614 12.5892 7.59046 16.3851 8.01793ZM86.7275 8.13071C88.6608 8.38102 90.2725 8.80248 91.8919 9.48112C95.0801 10.8171 97.3692 12.9698 97.8763 15.1081C98.001 15.6313 98.001 16.4552 97.8781 16.9396C97.7655 17.3801 97.4131 18.1513 97.1208 18.5956C96.2646 19.8988 94.7191 21.1496 92.7876 22.1039C90.7848 23.093 88.531 23.7142 86.0872 23.9505C85.1227 24.0439 83.009 24.0439 82.0445 23.9505C77.5025 23.5112 73.4358 21.6578 71.4106 19.1043C69.5805 16.7976 69.7739 14.4955 71.9874 12.2439C74.3117 9.87902 78.4463 8.25656 82.8242 7.99146C83.6992 7.93851 85.831 8.01449 86.7275 8.13071Z" fill="white"/>
</svg>
