<svg width="161" height="33" viewBox="0 0 161 33" fill="none" xmlns="http://www.w3.org/2000/svg">
<path fill-rule="evenodd" clip-rule="evenodd" d="M132.323 14.8328C127.818 22.6167 124.132 29.0507 124.132 29.1305C124.132 29.3276 124.686 30.2563 124.797 30.2463C124.846 30.2421 127.199 28.679 130.024 26.7731L135.161 23.3078L138.113 18.2183L141.065 13.1288L141.444 7.28265C141.653 4.06737 141.827 1.26633 141.831 1.05831C141.839 0.696851 141.809 0.680088 141.176 0.680088H140.513L132.323 14.8328ZM143.187 1.53374C143.212 2.00995 143.373 4.81357 143.544 7.7641L143.854 13.1288L146.8 18.2514L149.745 23.374L154.946 26.883C157.807 28.8128 160.161 30.3918 160.176 30.3918C160.192 30.3918 160.365 30.1188 160.56 29.7852L160.915 29.1785L152.76 14.9637L144.606 0.748857L143.874 0.70837L143.143 0.667969L143.187 1.53374ZM0.552069 15.4814C0.502213 19.6973 0.460938 25.1498 0.460938 27.5978V32.0489L2.8291 32.0114L5.19637 31.9737L5.26515 26.6461L5.33393 21.3186L10.133 26.6805L14.9329 32.0425H17.8538C19.4612 32.0425 20.7755 32.0078 20.7755 31.9655C20.7755 31.9231 18.8818 29.7721 16.567 27.1855C14.2521 24.5989 12.2716 22.3807 12.1659 22.2562C11.9906 22.0489 12.0705 22.0303 13.1243 22.0353C16.3676 22.0501 18.8775 20.4032 19.7913 17.6606C20.4093 15.8073 20.2924 13.5842 19.4879 11.8819C18.8621 10.5571 17.9157 9.63336 16.481 8.94741C14.4008 7.95244 14.2117 7.93086 7.03762 7.87009L0.643148 7.81585L0.552069 15.4814ZM60.9929 20.0065V32.0425H61.4219C61.6677 32.0425 62.2892 31.8 62.8754 31.4758L63.9 30.9089L64.2714 31.1843C66.735 33.0095 71.0999 33.2625 74.148 31.7567C76.0511 30.8166 77.3121 29.2983 77.9663 27.1593C78.1838 26.4467 78.219 25.8364 78.219 22.6888C78.219 19.0571 78.2173 19.0396 77.8382 17.9669C77.3517 16.5866 76.7465 15.6476 75.7674 14.7519C74.3225 13.4292 72.5328 12.7827 70.2575 12.7614C68.5994 12.7457 67.5009 12.9541 66.4487 13.4836L65.6596 13.8812V10.9258V7.97049H63.3258H60.9929V20.0065ZM100.386 20.0752V32.18H102.717H105.049L105.085 27.8977L105.121 23.6152L108.962 27.8977L112.802 32.18H115.748H118.695L118.28 31.733C117.81 31.2278 110.328 22.8804 110.033 22.5317C109.862 22.3307 110.259 21.8316 113.644 17.9924C115.736 15.62 117.636 13.4778 117.866 13.2319L118.283 12.7849L115.34 12.7899L112.396 12.7952L108.759 16.9387L105.121 21.0823L105.086 14.5265L105.05 7.97049H102.718H100.386V20.0752ZM12.9602 12.1773C14.8057 12.5979 15.8337 13.6907 15.8337 15.2321C15.8337 16.8873 15.1616 17.8727 13.7054 18.351C12.9877 18.5871 12.3989 18.6279 9.074 18.6734L5.26515 18.7254V15.3425V11.9596H8.6356C11.2152 11.9596 12.2295 12.0105 12.9602 12.1773ZM27.9126 12.7861C24.8104 13.3212 22.4517 15.4679 21.7176 18.4246C21.5835 18.9677 21.5302 20.1901 21.5311 22.7576C21.5328 26.147 21.5491 26.3807 21.8508 27.2281C22.7096 29.6426 24.3849 31.2658 26.9138 32.1329C27.8232 32.4446 28.2788 32.5084 29.986 32.5624C32.404 32.6387 33.8042 32.4048 35.2818 31.678C37.0337 30.8166 38.3944 28.9542 38.5792 27.1676L38.6574 26.4027H36.5816H34.5048L34.2916 26.9135C33.8017 28.0905 33.0401 28.4867 31.0966 28.5757C30.0083 28.6254 29.4728 28.5836 28.7748 28.3943C27.0875 27.9367 26.1281 26.5826 26.1281 24.6583V23.9268H32.4564H38.7856L38.7236 21.2101C38.6566 18.2653 38.5388 17.6931 37.7102 16.2756C36.7543 14.6424 34.7377 13.308 32.5509 12.8627C31.4447 12.6374 29.0095 12.5971 27.9126 12.7861ZM47.335 12.862C44.9316 13.386 42.8196 14.9208 41.9522 16.7739C41.2302 18.3162 41.1589 18.8535 41.1589 22.6888C41.1589 25.927 41.182 26.2709 41.4623 27.1651C42.2539 29.6852 44.3221 31.5891 47.0866 32.341C48.5633 32.743 51.6423 32.74 53.1896 32.3353C56.1595 31.5584 57.7144 29.9724 58.2285 27.1937L58.3488 26.5404H56.1706C54.2477 26.5404 53.9925 26.5666 53.9925 26.7648C53.9925 26.8883 53.8661 27.1934 53.7122 27.4428C52.9412 28.6932 49.753 29.0988 47.7467 28.2017C46.5536 27.6684 45.8909 26.5603 45.7852 24.9241L45.7207 23.9268H52.0524H58.3849V21.5485C58.3849 18.0052 57.9766 16.7525 56.2678 15.0494C55.2259 14.0116 54.1394 13.3852 52.6833 12.9837C51.5125 12.6606 48.5668 12.5937 47.335 12.862ZM87.6255 12.8037C84.1888 13.2594 81.8877 15.1236 80.9413 18.2183C80.7247 18.9293 80.6894 19.539 80.6894 22.6201C80.6894 26.5228 80.76 27.0593 81.476 28.5875C82.272 30.2858 84.1622 31.7537 86.3859 32.3995C87.6143 32.7565 90.8652 32.7666 92.1348 32.4172C94.8554 31.6689 96.5978 30.0953 97.5313 27.5435C97.7926 26.8285 97.8287 26.3864 97.8803 23.239C97.9267 20.4087 97.8958 19.5322 97.7213 18.6997C97.1118 15.7869 95.0067 13.688 92.0093 13.0053C90.7956 12.7291 88.8607 12.64 87.6255 12.8037ZM32.116 16.9046C33.3555 17.4538 34.0148 18.3558 34.1747 19.7212L34.265 20.4879H30.1776H26.0903L26.1651 19.6626C26.3001 18.1714 27.2078 17.1083 28.7095 16.6825C29.618 16.4249 31.2779 16.5332 32.116 16.9046ZM50.6014 16.6394C52.0481 16.8491 52.9489 17.4334 53.4939 18.516C53.7913 19.1072 53.94 20.419 53.7251 20.5523C53.6349 20.6081 51.8048 20.6083 49.6584 20.5528L45.7568 20.452V20.0135C45.7568 18.2916 46.955 16.9441 48.7567 16.639C49.6404 16.4895 49.5664 16.4895 50.6014 16.6394ZM71.6621 17.2666C72.0566 17.4593 72.5681 17.845 72.7984 18.1239C73.5368 19.0161 73.6494 19.7161 73.5961 23.0732C73.5428 26.4437 73.4758 26.7057 72.4134 27.6673C70.9056 29.0324 67.7046 28.8771 66.4453 27.3779C65.7043 26.4949 65.6372 26.0619 65.6845 22.4728L65.7284 19.1812L66.1126 18.5247C66.3249 18.1637 66.7263 17.7173 67.0049 17.5327C68.2495 16.7095 70.2807 16.5936 71.6621 17.2666ZM91.1824 17.1968C92.0136 17.5549 92.8569 18.4518 93.0873 19.2234C93.3408 20.0725 93.3047 25.5213 93.04 26.2729C92.7348 27.141 92.2259 27.7336 91.4213 28.1585C90.7827 28.4957 90.5669 28.5347 89.3369 28.5347C87.7363 28.5349 87.0323 28.2864 86.2011 27.4287C85.3716 26.5723 85.2616 25.948 85.3123 22.3802C85.3527 19.5523 85.3785 19.2768 85.6527 18.7685C86.159 17.828 86.9962 17.2023 88.1309 16.9155C88.9166 16.7171 90.3839 16.8525 91.1824 17.1968ZM130.816 28.6224L125.353 31.3778L125.69 31.9509L126.028 32.5239L142.487 32.5589L158.945 32.5938L159.248 32.0531C159.415 31.7557 159.504 31.4849 159.446 31.4512C159.387 31.4173 156.893 30.1438 153.905 28.6211L148.469 25.8525L142.375 25.8597L136.28 25.8669L130.816 28.6224Z" fill="white"/>
</svg>
