<svg width="272" height="84" viewBox="0 0 272 84" fill="none" xmlns="http://www.w3.org/2000/svg">
<path fill-rule="evenodd" clip-rule="evenodd" d="M43.6307 1.2088C43.3656 1.90698 43.414 2.35071 43.7769 2.54507C44.5881 2.97948 45.0343 1.94114 44.3757 1.15126C43.9396 0.628071 43.8487 0.635196 43.6307 1.2088ZM49.2238 1.19053C48.8408 1.77546 48.8488 2.32129 49.2437 2.54252C49.6593 2.77506 50.2068 2.47876 50.2068 2.02116C50.2068 1.59735 49.8348 0.740234 49.6507 0.740234C49.5781 0.740234 49.3859 0.942822 49.2238 1.19053ZM45.5644 2.73725L44.3082 4.0041L43.0636 3.3768C42.3791 3.03191 41.7553 2.75241 41.6776 2.75588C41.5998 2.75935 41.2531 3.38264 40.9074 4.14093L40.279 5.51977L39.0363 5.395C38.3531 5.32632 37.794 5.3128 37.794 5.36504C37.794 5.41729 38.0781 6.05336 38.4254 6.77841C38.7726 7.50345 39.1515 8.5215 39.2676 9.04066L39.4789 9.98456L41.0551 9.20636C43.1583 8.16821 45.1197 7.77965 47.5566 7.91867C49.6686 8.03906 51.8358 8.64937 53.1789 9.5019C53.7813 9.88424 54.0756 9.9855 54.1283 9.82802C54.1703 9.7027 54.2988 9.2301 54.4138 8.77798C54.5288 8.32586 54.901 7.35183 55.2407 6.61327L55.8586 5.27078L54.612 5.3961L53.3654 5.52123L52.7078 4.13545C52.3461 3.37332 51.9434 2.75223 51.813 2.75515C51.6826 2.75826 51.083 3.04378 50.4806 3.38977L49.3853 4.01854L48.103 2.74455L46.8207 1.47039L45.5644 2.73725ZM54.2227 2.67989C53.4883 3.1722 53.2998 3.48549 53.506 3.87094C53.7192 4.26972 54.5538 4.32945 54.6969 3.95624C54.7506 3.81613 54.7686 3.40274 54.7369 3.03775L54.6791 2.37409L54.2227 2.67989ZM38.9245 3.34337C38.977 4.07169 39.0142 4.11974 39.5281 4.11974C39.987 4.11974 40.0849 4.03991 40.1326 3.6278C40.1776 3.23723 40.0761 3.07739 39.6397 2.85142C38.8785 2.45757 38.8612 2.46944 38.9245 3.34337ZM50.5176 4.68476L51.6498 4.07736L52.2784 5.40194L52.9069 6.72634L53.628 6.59446L54.3492 6.46256L53.8943 7.60976L53.4394 8.75715L52.5359 8.299C51.4221 7.73417 49.3857 7.20076 47.7197 7.03744C45.7984 6.8491 43.0373 7.40627 40.492 8.49575C40.2384 8.60425 40.0889 8.42889 39.7162 7.58529C39.4621 7.01059 39.2543 6.52065 39.2543 6.49635C39.2543 6.47206 39.5817 6.51206 39.9818 6.58532L40.709 6.71849L41.2866 5.46478C41.6042 4.77518 41.9362 4.21108 42.0248 4.21108C42.1131 4.21108 42.6629 4.4524 43.2465 4.74723L44.3078 5.2832L45.5642 4.01616L46.8207 2.74912L48.103 4.02073L49.3853 5.29234L50.5176 4.68476ZM43.7266 9.68645C42.0804 10.1247 41.3525 10.4424 40.3892 11.1431C39.442 11.8321 38.8909 12.6876 38.8899 13.4708C38.8896 13.7911 39.2634 16.2087 39.7207 18.8431C40.4003 22.7583 40.5087 23.6725 40.3139 23.8495C40.1829 23.9684 38.3918 25.0371 36.3337 26.2241C32.3099 28.5448 31.6006 29.0835 31.038 30.2464C30.4878 31.3841 30.5459 31.6125 31.3853 31.6125C32.0082 31.6125 32.1112 31.5505 32.2209 31.1101C32.3931 30.4196 33.1417 29.4757 33.7784 29.1462C34.4365 28.8057 35.9699 28.7914 36.7503 29.1186C37.625 29.4856 38.4577 30.2559 39.2642 31.4443C39.6603 32.0281 39.9845 32.5514 39.9845 32.6071C39.9845 32.6629 37.3969 32.7085 34.2344 32.7085C31.0719 32.7085 28.4844 32.7524 28.4844 32.8059C28.4844 32.8596 28.6951 33.3196 28.9526 33.8282C29.2102 34.3369 29.5799 35.3749 29.774 36.1348C30.1072 37.4382 30.1273 38.263 30.1273 50.693C30.1273 61.7832 30.1704 64.0349 30.3997 64.9156C31.1847 67.9319 33.0801 69.9295 36.1942 71.0228C37.3464 71.4273 37.9508 71.5045 40.806 71.613C44.3938 71.7492 44.6979 71.8297 46.0781 73.008L46.7867 73.613L47.5384 73.0037C48.9988 71.8205 49.2724 71.7489 52.8536 71.613C55.6863 71.5055 56.318 71.4255 57.4358 71.0331C59.7783 70.2106 61.5712 68.7348 62.5458 66.8268C63.5135 64.9326 63.5264 64.717 63.5323 50.5194C63.5381 36.154 63.5294 36.2904 64.6136 33.8974L65.1523 32.7085H59.4136C56.1825 32.7085 53.6751 32.6375 53.6751 32.5459C53.6751 32.2697 55.221 30.2653 55.8285 29.7536C56.6174 29.0893 57.5513 28.8155 58.7023 28.9111C59.9342 29.0132 60.8099 29.6504 61.2753 30.7832C61.5959 31.5632 61.6563 31.6112 62.3198 31.6117C62.9967 31.6125 63.0194 31.5927 62.9007 31.1101C62.6997 30.2927 61.9242 29.0991 61.2921 28.6339C60.968 28.3956 59.0189 27.2275 56.9608 26.0383C54.9026 24.8491 53.1825 23.8475 53.1383 23.8126C53.0944 23.7777 53.4439 21.5109 53.9157 18.7753C54.3871 16.0397 54.7725 13.5818 54.7716 13.3135C54.7696 12.559 53.7183 11.3479 52.4734 10.6658C50.0925 9.36127 46.4707 8.95572 43.7266 9.68645ZM25.4314 10.9648C24.6258 11.1563 23.9433 11.632 23.5901 12.2481L23.2942 12.7639L22.6203 12.4198C21.2286 11.7094 19.6398 11.7972 18.8901 12.6264C18.5721 12.9779 18.5739 12.999 18.945 13.2592C19.1562 13.4073 20.0233 14.453 20.8718 15.583C22.6079 17.8953 23.1201 18.4216 24.2626 19.0678L25.0607 19.5192L24.6277 19.7658C24.3517 19.9231 23.5989 20.012 22.5518 20.0109C21.1112 20.0095 20.7901 19.9468 19.9441 19.5021C18.7975 18.8995 17.6866 17.9313 17.1559 17.072C16.9447 16.7302 16.7165 16.4504 16.6486 16.4504C16.4427 16.4504 15.6027 17.9544 15.1861 19.0685C14.3437 21.3215 14.8424 23.2629 16.7392 25.1163L17.7233 26.0778L16.3042 26.9106C13.8023 28.3787 12.2888 29.8734 9.78036 33.3538C7.01213 37.1943 5.44154 38.824 3.3394 40.0373C2.81241 40.3415 2.38106 40.6383 2.38106 40.6968C2.38106 40.7552 2.58551 41.0714 2.83541 41.3991C3.39472 42.1331 4.31745 42.4572 5.55034 42.3527L6.48823 42.2732L5.89242 43.4736C5.50781 44.2486 5.10439 45.5755 4.75373 47.2192C4.14861 50.0551 3.74263 50.8707 2.56543 51.6144C2.16676 51.8661 1.7617 52.0722 1.66532 52.0722C1.00689 52.0722 1.41944 53.475 2.30732 54.2552C2.79634 54.685 3.11725 54.8135 3.71087 54.8169L4.48029 54.8215L3.69189 55.5659C3.25835 55.9753 2.94293 56.4126 2.99075 56.5377C3.12401 56.8848 4.6621 57.2475 5.51529 57.1331C7.18317 56.9091 8.67949 55.0747 9.1575 52.667C9.43171 51.287 9.68323 50.8671 10.1324 51.0397C10.4968 51.1797 10.4596 51.6758 9.95812 53.351C9.58343 54.6036 9.68649 56.6637 10.1964 58.1156C10.3935 58.6764 10.9833 60.0584 11.5072 61.1868C12.9638 64.3237 13.2596 65.818 12.6923 67.177C12.5404 67.5406 12.454 67.8766 12.5006 67.923C12.6833 68.106 16.1795 67.5689 16.9095 67.2458L17.6842 66.9029L17.8987 67.4208C18.0166 67.7058 18.2082 68.3524 18.3245 68.858L18.5359 69.7771L19.1471 69.4788C19.4897 69.3119 19.8853 68.9145 20.0468 68.5753L20.3352 67.9701L20.6138 68.5453C21.1613 69.6767 22.7999 71.2206 24.1683 71.8944C26.0366 72.8143 29.4228 73.4647 29.1533 72.8516C28.2761 70.8587 28.0989 70.1908 27.8494 67.9376C27.4768 64.5753 26.9573 62.9363 25.8443 61.6126L25.3772 61.0571L26.1338 60.4574C26.9649 59.7988 27.5615 58.6925 27.5677 57.7987L27.5717 57.223L26.7212 57.479C24.1622 58.2497 20.3336 57.3079 18.7086 55.5082C17.6794 54.368 17.945 53.7243 19.0743 54.6224C19.4444 54.9166 20.0416 55.2548 20.4011 55.3735C21.109 55.6074 22.7187 55.5076 23.6827 55.1704C24.2203 54.9822 24.2515 54.928 24.0808 54.4786C23.9789 54.2104 23.7631 53.8447 23.6015 53.6658C23.3272 53.3627 23.3607 53.2862 24.0952 52.5373C25.0602 51.5534 24.9937 51.228 23.7946 51.0649C22.2452 50.854 22.2651 50.8691 22.5726 50.1323C23.039 49.0156 22.8693 48.8755 21.0481 48.8744C20.1684 48.8739 19.1032 48.769 18.681 48.6414C17.6773 48.3375 16.8018 47.5929 16.8018 47.0432C16.8018 46.4178 17.095 46.3331 17.7196 46.7782C19.5877 48.1094 23.729 48.546 25.55 47.6038C26.082 47.3285 26.3076 46.9573 25.9429 46.9573C25.7326 46.9573 24.6511 46.0577 24.6511 45.883C24.6511 45.8121 25.0001 45.6608 25.4269 45.5464C25.8537 45.4323 26.4902 45.1464 26.8416 44.9113C27.4784 44.4851 28.1876 43.3793 28.0092 43.0905C27.9576 43.0069 27.4478 42.9379 26.8764 42.9373C26.305 42.9367 25.509 42.8442 25.1074 42.7316C24.4455 42.5458 24.4107 42.5075 24.7352 42.3215C25.2549 42.0237 26.1114 41.171 26.1114 40.9513C26.1114 40.8477 25.8035 40.7088 25.4269 40.6429C23.94 40.3821 22.7022 39.2918 22.3914 37.9692L22.2755 37.4756L22.9612 37.7712C23.8877 38.1702 25.8445 38.1656 26.6103 37.7625C26.9348 37.5917 27.3251 37.2108 27.4773 36.9161C27.9249 36.05 27.8014 34.9007 27.2609 34.9007C26.7322 34.9007 25.9374 34.1498 25.7289 33.4535C25.2335 31.7984 26.4666 30.3701 30.1415 28.3428C36.0305 25.0943 38.3208 22.8869 38.6438 20.1494C38.8584 18.3303 38.0165 16.9609 35.4568 14.965C34.7845 14.4409 33.935 13.7303 33.5691 13.386C32.7997 12.6624 32.4509 12.6918 31.5902 13.5531C31.1465 13.997 31.04 14.2579 31.04 14.8998C31.04 15.3377 31.1247 15.9188 31.2282 16.1912L31.4164 16.6866L30.1578 16.5695C28.5994 16.4247 27.7564 16.0834 27.1373 15.347C26.2921 14.342 26.5531 12.7448 27.7816 11.4063L28.1356 11.0205L27.443 10.9059C26.6101 10.7682 26.2087 10.7799 25.4314 10.9648ZM49.8017 11.0634C51.2047 11.3944 52.1455 11.8635 52.8096 12.5634L53.3133 13.0943L50.1755 14.3461C48.4498 15.0346 46.943 15.5978 46.8267 15.5978C46.7104 15.5978 45.2059 15.044 43.4831 14.3668C40.6208 13.2419 40.3669 13.106 40.5361 12.7894C40.8145 12.2687 42.2995 11.4683 43.6353 11.1188C45.1418 10.7247 48.2483 10.6968 49.8017 11.0634ZM65.9513 10.9058L65.541 10.9955L65.9754 11.5764C67.9998 14.284 66.9845 16.244 63.383 16.5804C62.2622 16.6851 62.2014 16.6714 62.3372 16.3426C62.4164 16.1508 62.5211 15.6201 62.5701 15.1634C62.646 14.4535 62.5866 14.2472 62.161 13.7411C61.4976 12.9519 60.6868 12.5197 60.5483 12.8813C60.4939 13.0232 59.6626 13.7661 58.7008 14.5323C55.4592 17.1147 54.818 18.0784 55.0003 20.092C55.2521 22.8698 57.4622 25.0227 63.441 28.3139C66.6405 30.0753 67.9266 31.3547 67.968 32.8178C67.9928 33.6966 67.5936 34.298 66.6968 34.7324C65.9376 35.1003 65.9053 35.1494 65.9053 35.9357C65.9053 36.9552 66.5555 37.6883 67.7475 38.0129C68.5229 38.2241 69.9596 38.0937 70.8796 37.7284C71.6947 37.405 70.7667 39.4365 69.8369 40.0108C69.5318 40.1991 68.8922 40.4514 68.4152 40.5714C67.9383 40.6915 67.5482 40.8685 67.5482 40.9648C67.5482 41.1734 68.4188 42.0319 68.9244 42.3215C69.2489 42.5075 69.214 42.5458 68.5522 42.7316C68.1506 42.8442 67.3087 42.9367 66.6811 42.9373C65.4522 42.9384 65.3809 43.0137 65.8139 43.8514C66.1923 44.584 67.1192 45.2487 68.1447 45.5231C68.6199 45.6502 69.0085 45.8121 69.0085 45.883C69.0085 46.0577 67.9269 46.9573 67.7166 46.9573C67.3492 46.9573 67.5794 47.3294 68.1202 47.6092C69.9021 48.5314 74.1209 48.0745 75.9663 46.7596C76.5926 46.3131 76.9266 46.4678 76.8277 47.1582C76.6818 48.1746 74.2926 49.0739 72.1665 48.913L70.8339 48.8122L70.835 49.3004C70.8357 49.569 70.9509 50.0091 71.0913 50.2783C71.3732 50.8189 71.2205 50.9751 70.4082 50.9772C70.1906 50.9778 69.6985 51.0655 69.315 51.172L68.6173 51.3658L68.9283 51.8561C69.0994 52.1257 69.4687 52.5322 69.7487 52.7594L70.2582 53.1726L69.7898 54.0113C69.2496 54.9784 69.2995 55.0517 70.7059 55.3545C72.3832 55.7155 73.4096 55.5163 74.5347 54.6114C75.3858 53.9271 75.7717 54.0941 75.3272 54.9543C74.734 56.1021 72.9226 57.1559 70.8369 57.5665C69.7635 57.7777 67.4018 57.7132 66.4985 57.4478C66.134 57.3407 66.0878 57.3919 66.0878 57.9023C66.0878 58.7958 66.5164 59.6142 67.3651 60.3412L68.1421 61.0069L67.506 61.9742C66.5947 63.3597 66.1176 64.7952 65.8929 66.8282C65.5361 70.0547 65.3267 71.0805 64.8201 72.0856L64.3188 73.0799H64.846C65.9027 73.0799 68.2161 72.4894 69.3736 71.9241C70.7121 71.2706 72.6166 69.4984 73.015 68.5355L73.2686 67.9228L73.5932 68.5558C73.7716 68.9038 74.187 69.3192 74.5163 69.4788L75.1148 69.769L75.3328 68.6995C75.4527 68.1113 75.6399 67.4635 75.7486 67.2601C75.9452 66.8925 75.9518 66.8925 76.7352 67.2392C77.169 67.4314 78.2571 67.6725 79.1532 67.7752C81.3981 68.0326 81.2622 68.066 80.9556 67.3315C80.3377 65.8517 80.6793 64.2043 82.3488 60.6088C84.0312 56.9855 84.3047 54.9122 83.4139 52.5298C83.0634 51.5923 83.0521 51.4578 83.3037 51.2063C83.7222 50.7874 84.1247 51.0529 84.2558 51.8341C84.9051 55.7085 87.027 57.7472 89.6358 57.0028C90.8753 56.6489 90.9011 56.5528 90.008 55.6415L89.1948 54.8123H89.9384C91.0344 54.8123 91.8372 54.0758 92.2696 52.6727C92.3727 52.3365 92.2919 52.2256 91.7908 52.0152C90.8616 51.6257 89.9796 50.7926 89.6092 49.955C89.4252 49.5374 89.0719 48.1785 88.8252 46.9348C88.5183 45.3891 88.1831 44.2962 87.7654 43.48L87.1542 42.2864L88.2579 42.3495C89.5619 42.4238 90.4524 42.029 90.9699 41.1469L91.3 40.5842L90.6957 40.2799C89.4699 39.6621 87.4112 37.9265 86.2946 36.5703C85.663 35.8027 84.4109 34.1594 83.512 32.9183C81.5239 30.1734 79.4071 28.0959 77.4234 26.9425L75.9465 26.0838L77.1115 24.848C79.3304 22.494 79.4272 20.3726 77.4687 17.026L77.0036 16.2313L76.6562 16.803C76.0508 17.7995 74.6835 19.0203 73.6078 19.5248C72.7347 19.9343 72.3194 20.0122 71.0164 20.0103C70.0454 20.0091 69.2991 19.9147 69.022 19.7583L68.579 19.5086L69.1133 19.2346C70.172 18.6918 71.1938 17.6964 72.4877 15.9475C73.2122 14.9682 74.0835 13.8733 74.4237 13.5148C75.0113 12.8951 75.0261 12.8478 74.7176 12.5683C73.8584 11.7903 72.6178 11.6962 71.2948 12.3085L70.3867 12.7289L70.0165 12.1791C69.8127 11.8767 69.3926 11.481 69.0828 11.2998C68.514 10.9675 66.7089 10.7403 65.9513 10.9058ZM25.5959 12.5685C24.6642 14.3929 25.722 16.4779 28.0281 17.3625C28.9403 17.7123 29.4543 17.78 31.1033 17.7684C32.1926 17.7607 33.1261 17.7117 33.1781 17.6599C33.2299 17.6078 33.0576 17.134 32.7951 16.6065C32.3486 15.71 32.1736 14.6461 32.4303 14.3894C32.5485 14.271 35.8361 16.6986 36.3724 17.3006C36.5441 17.4933 36.8611 18.0497 37.0762 18.5367C38.1976 21.0737 36.0777 23.6134 30.111 26.8813C26.4475 28.888 25.4436 29.6925 24.6423 31.2643C23.8809 32.7581 24.428 34.7596 25.8359 35.6304C26.1882 35.8482 26.4764 36.1061 26.4764 36.2037C26.4764 36.301 26.1727 36.5077 25.8014 36.6629C24.8754 37.0502 23.943 36.8688 22.2976 35.981L20.948 35.2528L21.0544 36.7665C21.2076 38.9425 21.4423 39.5711 22.4803 40.5828L23.3804 41.4602L22.6465 41.6801C22.2431 41.8012 21.913 41.9625 21.913 42.0386C21.913 42.2071 23.1093 43.1598 23.7384 43.4919C23.9894 43.6243 24.5233 43.8313 24.9249 43.9517L25.655 44.1703L24.9249 44.3755C24.5233 44.4882 23.8778 44.5808 23.4905 44.5814C22.814 44.5825 22.791 44.6024 22.9094 45.0849C22.9773 45.361 23.1518 45.8285 23.2972 46.1233C23.6926 46.9253 23.4344 47.0473 21.8233 46.8212C20.8692 46.6871 19.9382 46.3879 18.8183 45.8554C17.1698 45.0714 16.7215 45.0196 16.0252 45.5336C15.518 45.9082 15.3494 46.7886 15.6277 47.6107C16.0857 48.964 17.609 49.8855 19.8593 50.1709C20.3865 50.2377 20.8177 50.326 20.8177 50.3667C20.8177 50.4077 20.6856 50.6428 20.5241 50.8892C20.233 51.334 20.2374 51.3404 21.0869 51.7049C21.5579 51.9069 22.075 52.0722 22.236 52.0722C22.4579 52.0722 22.4098 52.1966 22.0384 52.5846C21.4429 53.2066 21.4373 53.2979 21.9586 53.8666L22.3693 54.3147L21.5733 54.2128C21.1353 54.1567 20.355 53.8444 19.8391 53.5182C18.6329 52.7563 17.8286 52.7247 17.2344 53.416C16.4855 54.2873 16.7096 55.282 17.9197 56.4572C19.3322 57.8291 22.5255 59.0062 24.8695 59.0192L25.8376 59.0247L25.2898 59.5215C24.9884 59.795 24.4984 60.1947 24.2011 60.41L23.6606 60.8016L24.3174 61.529C25.8407 63.2165 26.3794 64.6056 26.7539 67.813C26.9049 69.1064 27.1472 70.5091 27.2921 70.93C27.437 71.3511 27.5237 71.7274 27.485 71.7663C27.3094 71.9419 25.4069 71.3737 24.4353 70.8553C22.9781 70.078 21.3653 68.325 20.7949 66.898L20.3488 65.782L19.9024 66.5995C19.4616 67.4071 19.1749 67.6373 19.1749 67.1835C19.1749 67.0551 18.8824 66.3392 18.5248 65.5926L17.8747 64.2351L17.4135 64.825C16.8067 65.6008 16.086 65.9556 15.1171 65.9556H14.327L14.1314 64.7225C14.0018 63.905 13.5324 62.5969 12.7388 60.8406C12.0805 59.3838 11.4112 57.7453 11.2513 57.1995C10.8654 55.8832 10.8927 54.3993 11.3255 53.1682C11.764 51.9211 11.7783 51.003 11.3672 50.4952C10.6562 49.6168 9.44323 49.4327 8.81891 50.1084C8.61012 50.3346 8.18915 51.3253 7.88339 52.31C7.23208 54.4089 6.75036 55.2626 5.99739 55.6522C5.69656 55.8079 5.42402 55.9087 5.39207 55.8763C5.35995 55.8438 5.52679 55.2434 5.76281 54.5424C5.99884 53.841 6.16367 53.2393 6.12918 53.2048C6.09467 53.1703 5.68615 53.2713 5.2214 53.4291C4.201 53.7759 3.6729 53.7846 3.24813 53.462C2.78886 53.1131 2.85075 52.962 3.71343 52.3277C4.81379 51.5188 5.4326 50.2494 5.9543 47.7306C6.59593 44.6329 6.8075 44.119 8.21124 42.2484C8.9065 41.3217 9.37842 40.5651 9.25954 40.5667C9.14091 40.5685 8.30451 40.6915 7.40094 40.8401C5.58995 41.138 4.38902 41.1891 4.38902 40.9684C4.38902 40.8895 4.64767 40.6721 4.96384 40.4852C6.16769 39.7736 8.32678 37.4711 10.0265 35.0864C12.9509 30.9835 14.7652 29.2962 18.3944 27.3036L20.2611 26.2787L19.1949 25.4932C16.9288 23.8237 16.0717 22.5984 16.0717 21.0282C16.0717 20.5238 16.206 19.7754 16.3701 19.365L16.6686 18.6186L17.2372 19.1686C17.5499 19.4713 18.2986 19.9494 18.901 20.2311C19.9141 20.7049 20.1604 20.7427 22.1868 20.7356C24.4393 20.7276 25.5029 20.5144 27.3353 19.7031L28.1588 19.3386L26.9697 18.9229C24.47 18.0488 21.8761 15.9853 20.9311 14.1192C20.4599 13.1888 20.457 13.1622 20.8219 13.1622C21.2669 13.1622 22.5027 13.7691 23.3101 14.3843L23.8861 14.8231L24.1912 13.9035C24.359 13.3979 24.7065 12.8188 24.9634 12.6165C25.5432 12.1603 25.815 12.1396 25.5959 12.5685ZM68.729 12.6832C68.9676 12.9222 69.2644 13.4565 69.3885 13.8707C69.5125 14.2847 69.6731 14.6237 69.7454 14.6237C69.8177 14.6237 70.3593 14.3326 70.9487 13.9769C72.6555 12.947 73.2831 12.9041 72.8553 13.8465C71.9315 15.8821 68.9021 18.27 66.1791 19.1091L65.449 19.3341L66.3617 19.7353C68.7738 20.7955 71.9523 21.1335 73.9444 20.5414C74.9272 20.2495 76.1955 19.495 76.6743 18.9176C76.9006 18.6447 76.9587 18.6942 77.247 19.4046C77.6635 20.432 77.6637 21.6554 77.2471 22.57C76.9043 23.3227 74.9394 25.2946 73.949 25.8803C73.6412 26.0622 73.3895 26.2603 73.3895 26.3207C73.3895 26.381 73.9024 26.6717 74.5293 26.9663C76.3832 27.8381 78.8602 29.5842 80.3329 31.0579C81.0898 31.8151 82.4362 33.4621 83.3252 34.718C85.4973 37.7865 86.3152 38.7147 87.9476 39.9632L89.3289 41.0203L88.7092 41.0807C88.1556 41.1346 86.066 40.894 84.6312 40.6109C84.1107 40.5081 84.1229 40.5373 85.1977 41.9505C86.6032 43.7988 86.9608 44.5222 87.3536 46.3179C87.9691 49.1309 88.1814 49.929 88.4848 50.5697C88.8175 51.2697 89.8731 52.4449 90.4533 52.7596C90.8074 52.9518 90.8083 52.963 90.4705 53.3359C90.0561 53.7943 89.359 53.8217 88.3542 53.4194C87.9459 53.2562 87.5754 53.1599 87.5298 53.2057C87.4155 53.3197 87.9854 55.2139 88.2201 55.5017C88.5338 55.8867 88.2459 55.9542 87.6364 55.6389C86.8654 55.2398 86.4459 54.5052 85.7873 52.4028C85.1197 50.2706 84.7233 49.6972 83.9178 49.6982C83.042 49.699 82.2053 50.2948 81.9915 51.0699C81.842 51.6117 81.8893 51.9755 82.2542 53.0945C82.4988 53.8445 82.6978 54.764 82.6963 55.1377C82.6916 56.3648 82.1666 58.0888 81.0817 60.4419C79.8421 63.1305 79.5911 63.8427 79.4356 65.1122L79.3221 66.04L78.5043 65.9808C77.4949 65.9077 76.8625 65.5919 76.2373 64.848L75.7557 64.2753L75.006 65.8763L74.2564 67.477L73.8686 66.8341C73.6553 66.4804 73.4147 66.1767 73.334 66.1596C73.2533 66.1424 72.9048 66.6936 72.5595 67.3845C71.7751 68.9535 70.3257 70.3628 68.7782 71.0615C67.7378 71.531 66.0878 71.9526 66.0878 71.7489C66.0878 71.7023 66.2076 71.3246 66.3542 70.9092C66.5006 70.4938 66.7108 69.271 66.8215 68.1917C67.1515 64.9728 67.7506 63.3389 69.2071 61.6861L69.9915 60.7961L69.4546 60.4073C69.1593 60.1936 68.6711 59.795 68.3698 59.5215L67.822 59.0247L68.79 59.0192C71.2483 59.0057 74.1193 57.9101 75.6844 56.3887C77.0951 55.0173 77.234 53.8738 76.0771 53.1586C75.3777 52.7264 75.0048 52.7907 73.775 53.5557C73.206 53.9097 72.5301 54.1571 71.9843 54.2113L71.1077 54.2981L71.6553 53.8396L72.203 53.3809L71.701 52.8535C71.1378 52.262 71.0787 52.0722 71.4576 52.0722C71.5998 52.0722 72.0987 51.9082 72.566 51.7078L73.4156 51.3433L73.0415 50.8176L72.6673 50.2916L73.7626 50.1678C76.4907 49.8589 78.1355 48.6151 78.1355 46.861C78.1355 46.1074 77.3289 45.1305 76.7068 45.1305C76.5078 45.1305 75.6406 45.4688 74.7793 45.8824C73.718 46.392 72.7712 46.698 71.8409 46.8321C70.1992 47.0689 69.9758 46.9487 70.3514 46.0306C70.9425 44.5859 70.9728 44.6483 69.6186 44.5217C68.4485 44.4124 67.527 44.0344 68.4304 44.0344C68.9484 44.0344 70.3697 43.2939 71.199 42.5919L71.8378 42.0509L71.2903 41.8374C70.9891 41.7201 70.5913 41.5658 70.4064 41.4945C70.1183 41.3836 70.1745 41.296 70.799 40.8823C71.8609 40.1793 72.4392 38.8811 72.5926 36.8571L72.7143 35.2514L71.335 35.9959C69.8029 36.823 68.4733 37.0801 67.7451 36.6901C67.073 36.3301 67.1042 36.101 67.9012 35.5484C69.1897 34.6547 69.7036 32.9393 69.1091 31.5153C68.4497 29.9359 67.3815 29.0226 64.0799 27.2161C61.187 25.6328 59.6457 24.5965 58.2643 23.3055C55.9846 21.1747 55.6532 19.2727 57.2351 17.3952C57.8613 16.652 60.5888 14.5761 60.9727 14.5508C61.4378 14.5198 61.4008 15.4579 60.8971 16.4612C60.6397 16.9741 60.4291 17.4574 60.4291 17.5351C60.4291 17.7815 63.2426 17.9226 64.2752 17.728C65.6579 17.4675 67.0973 16.7213 67.6726 15.9663C68.2297 15.2354 68.4468 13.7263 68.127 12.8078C67.8884 12.1231 68.1212 12.0749 68.729 12.6832ZM43.5896 15.7568L46.3734 16.7142V21.347V25.9799L44.2286 24.8434C43.0488 24.2183 42.0656 23.6933 42.0436 23.6766C41.9875 23.6347 40.533 15.3154 40.5324 15.0346C40.5323 14.9091 40.5938 14.8049 40.669 14.8028C40.7442 14.801 42.0587 15.2303 43.5896 15.7568ZM53.1274 14.8914C53.1274 15.5569 51.5839 23.5386 51.4271 23.6845C51.308 23.7951 50.3278 24.3515 49.2485 24.921L47.2861 25.9562V21.3203V16.6844L49.9786 15.7577C52.5838 14.8609 53.1274 14.7115 53.1274 14.8914ZM9.21174 16.0078C9.1404 16.3877 9.17796 16.8561 9.30157 17.1274C9.57758 17.7336 9.45758 17.8294 8.8888 17.4563C8.25195 17.0387 7.38013 17.1496 7.463 17.6378C7.55902 18.2023 8.02925 18.6241 8.70373 18.7506C9.04146 18.814 9.31764 18.9426 9.31764 19.0365C9.31764 19.1317 9.04275 19.1555 8.69591 19.0904C8.20685 18.9985 7.99219 19.0555 7.69081 19.3571C7.36808 19.6801 7.34307 19.797 7.53182 20.0995C7.9628 20.7902 8.85613 20.9579 9.92219 20.5485C10.1137 20.4749 10.2299 20.6 10.3103 20.9661C10.5126 21.887 11.0898 22.6113 12.5482 23.7746C13.3315 24.3994 13.8081 24.8496 13.6073 24.7751C11.1328 23.8568 7.78263 23.9485 3.38504 25.055C0.723592 25.7247 0.555655 25.7794 0.555655 25.9806C0.555655 26.0903 0.928034 26.5531 1.3833 27.0085L2.21094 27.8368L1.6916 28.4917C1.40593 28.8517 0.908504 29.5338 0.586139 30.0071L0 30.8681L0.45617 31.1673C1.49209 31.8465 3.11251 31.8335 4.10479 31.1379C4.62431 30.7738 4.6683 30.7952 5.17686 31.6581C5.4284 32.0853 5.89442 32.7922 6.21241 33.2292L6.79088 34.0238L7.25491 33.5945C7.51028 33.3585 8.3852 32.3432 9.19936 31.3385C11.1441 28.9383 12.8819 27.2343 14.2398 26.3954C14.8457 26.0211 15.3414 25.6593 15.3414 25.5911C15.3414 25.2834 13.9246 23.8591 12.8678 23.1045C11.4789 22.1128 10.7779 21.3238 10.7779 20.7526C10.7779 20.4082 10.902 20.3134 11.4731 20.222C12.2855 20.092 12.917 19.4941 13.0745 18.7053C13.17 18.228 13.1243 18.1301 12.7623 18.0353C12.4991 17.9664 12.1116 18.0583 11.7406 18.2773C10.9902 18.7203 10.9691 18.5424 11.6987 17.9251C12.0594 17.6198 12.2673 17.2629 12.292 16.9071C12.3252 16.4235 12.2759 16.3645 11.8732 16.4054C11.6222 16.431 11.236 16.6572 11.0149 16.9078C10.4897 17.5033 10.4128 17.4839 10.4128 16.7562C10.4128 16.3573 10.2677 16.0123 9.99044 15.7514C9.42587 15.2208 9.35486 15.2442 9.21174 16.0078ZM83.6223 15.7998C83.3617 16.0774 83.1859 16.4862 83.1859 16.8143C83.1859 17.4792 83.1549 17.4849 82.6446 16.914C82.4236 16.6665 82.0167 16.4111 81.7407 16.3461C81.2877 16.2396 81.2387 16.2763 81.2387 16.7229C81.2387 17.0448 81.462 17.441 81.8776 17.857C82.6702 18.6501 82.6777 18.7252 81.9189 18.2773C81.5618 18.0665 81.1577 17.9671 80.9149 18.0307C79.9142 18.2926 80.9014 20.0164 82.1681 20.2191C82.658 20.2975 82.8814 20.4261 82.8808 20.6297C82.8796 21.1768 82.16 22.1149 81.2851 22.7101C80.2999 23.3803 78.3181 25.2547 78.3181 25.5162C78.3181 25.6114 78.8316 26.0283 79.4589 26.4426C80.7663 27.3055 82.8429 29.3672 84.6489 31.5951C85.3335 32.4395 86.078 33.3437 86.3041 33.6046L86.7149 34.0786L87.1783 33.5306C87.4327 33.2292 87.9338 32.5058 88.2923 31.9232C88.6499 31.3405 88.9963 30.8928 89.0607 30.9282C90.6183 31.775 91.9739 31.8896 92.9908 31.2607L93.6286 30.8663L92.8343 29.7289C92.3968 29.1034 91.875 28.4427 91.6747 28.2609C91.3129 27.9336 91.3189 27.9215 92.2068 27.0648C92.7002 26.5889 93.1042 26.1051 93.1042 25.9901C93.1042 25.7676 92.812 25.6753 89.8481 24.9592C86.0049 24.031 82.9466 23.8968 80.7909 24.5614C80.2935 24.7147 79.8618 24.8151 79.8314 24.7846C79.8009 24.7541 80.3125 24.3351 80.9684 23.8531C82.4501 22.7646 82.9986 22.1217 83.253 21.1764C83.4098 20.5933 83.5161 20.4643 83.7598 20.561C84.5833 20.8872 85.1734 20.8598 85.6654 20.4725C86.6255 19.7164 86.0685 18.8728 84.7693 19.1167C84.295 19.2057 84.1432 19.1819 84.235 19.0331C84.3056 18.9187 84.478 18.8251 84.6179 18.8251C85.3696 18.8251 86.5877 17.6628 86.2207 17.2956C86.0049 17.0791 85.153 17.1814 84.7358 17.4737C84.2117 17.8411 84.097 17.7344 84.3368 17.1033C84.5862 16.4469 84.5734 16.0391 84.2915 15.6535C84.0747 15.3565 84.0291 15.3666 83.6223 15.7998ZM41.7187 16.3879C42.3495 16.9891 44.8071 18.4598 45.1809 18.4598C45.2344 18.4598 45.2782 18.2653 45.2782 18.0274C45.2782 17.6511 45.0704 17.517 43.6809 16.9955C41.5516 16.1964 41.5014 16.181 41.7187 16.3879ZM49.9786 16.9571C48.442 17.5344 48.1988 17.6827 48.1988 18.0427C48.1988 18.5687 48.3702 18.5654 49.437 18.0185C50.4091 17.5201 52.2186 16.2622 51.9403 16.2781C51.8404 16.2838 50.9576 16.5893 49.9786 16.9571ZM42.4488 19.1041C42.9747 19.5349 44.9364 20.6519 45.1668 20.6519C45.4329 20.6519 45.2493 19.7659 44.9587 19.6476C44.3517 19.4004 42.1107 18.6425 42.0061 18.6491C41.9484 18.6527 42.1476 18.8575 42.4488 19.1041ZM49.7048 19.2316C48.4004 19.7139 48.1988 19.8463 48.1988 20.2202C48.1988 20.4577 48.2901 20.6519 48.4014 20.6519C48.7 20.6519 50.5777 19.6092 51.2107 19.0919C51.9234 18.5095 51.5683 18.5424 49.7048 19.2316ZM33.1392 20.4751C29.9705 21.9917 23.3024 23.019 19.905 22.5143C18.578 22.3172 18.3182 22.3685 19.1038 22.6725C20.327 23.1458 22.3039 23.4215 24.5191 23.4275C26.5539 23.4332 26.8231 23.4683 26.628 23.7034C26.2335 24.1792 22.4549 26.9349 19.5399 28.8727C15.0917 31.8301 12.7568 33.7708 12.0457 35.1027C11.8989 35.3776 12.2134 35.1726 12.8923 34.5512C13.8622 33.6634 15.7393 32.602 16.9754 32.2427L17.4228 32.1127L17.0749 32.6389C15.6251 34.8322 14.485 36.7913 13.8045 38.2586C12.7923 40.441 11.931 41.6995 10.0392 43.7604C8.5504 45.3823 7.82188 46.6056 7.59151 47.8707C7.48819 48.4388 7.54222 48.3881 8.07689 47.4158C8.41769 46.7961 9.47039 45.5013 10.5041 44.4303L12.3295 42.5387L12.3367 46.0723C12.3434 49.3883 12.3744 49.7047 12.8387 51.2072C13.194 52.3574 13.3342 53.2066 13.3363 54.2214C13.3407 56.5221 14.0591 58.855 15.1505 60.1118L15.5458 60.5667L15.2728 60.11C14.7497 59.2344 14.0854 56.9029 13.9585 55.4973C13.8882 54.7188 13.8711 54.0816 13.9204 54.0816C13.9699 54.0816 14.3797 54.6366 14.8313 55.3147C15.9022 56.923 17.1579 58.4432 20.4515 62.1193C21.9367 63.7771 23.3318 65.339 23.5518 65.5902C24.9135 67.1458 22.3333 63.7948 20.4765 61.596C19.2345 60.1256 17.6081 58.1096 16.8622 57.1162C15.5926 55.4254 13.87 52.2569 13.5949 51.1068L13.4731 50.5978L14.088 50.9577C14.6604 51.2929 16.9844 51.7006 16.9844 51.4659C16.9844 51.4078 16.4946 51.2229 15.8962 51.0548C14.4802 50.6572 13.414 49.7589 13.134 48.7278C13.0051 48.2528 12.9604 47.1292 13.0163 45.7699C13.0909 43.9548 13.2055 43.2793 13.6827 41.8423C14.3974 39.6898 15.3037 37.7464 15.3258 38.3189C15.3842 39.827 17.039 42.223 18.4943 42.9072C19.8389 43.5392 20.2578 43.5743 19.3573 42.9793C17.3142 41.6295 16.1752 39.6885 16.1919 37.5849C16.2016 36.3602 16.2199 36.3149 17.4032 34.5708C18.0643 33.5967 18.8495 32.5121 19.1485 32.1605C19.6474 31.5737 19.702 31.5513 19.8103 31.8865C20.1306 32.8786 20.6182 33.5516 21.3554 34.0198C22.4005 34.6836 22.5369 34.6692 22.0935 33.9416C21.3675 32.75 21.7974 30.6295 23.0712 29.12C23.9143 28.1206 23.685 28.1608 21.806 29.3416L21.274 29.6759L21.7304 29.1657C23.2697 27.4447 26.3985 25.1977 30.2999 23.0105C31.4492 22.3664 32.8457 21.4108 33.4031 20.8868C33.9608 20.3631 34.3759 19.9382 34.3257 19.9428C34.2755 19.9473 33.7416 20.1868 33.1392 20.4751ZM59.505 20.2655C59.7896 20.7975 61.4796 21.9999 63.5323 23.1306C66.5625 24.7999 68.9483 26.4587 70.5446 28.0058C71.9853 29.4019 71.9988 29.423 71.1119 28.8911C70.6123 28.5914 70.1755 28.3743 70.1412 28.4087C70.1068 28.443 70.3716 28.8791 70.7295 29.3778C71.9277 31.0469 72.224 32.6006 71.5837 33.8574C71.1735 34.6628 71.3815 34.7169 72.2771 34.0375C73.2394 33.3075 73.5521 32.8805 73.683 32.1181C73.7474 31.7433 73.8652 31.4768 73.9448 31.5259C74.1979 31.6825 76.1554 34.3547 76.7921 35.4127C77.3347 36.3146 77.4052 36.5804 77.4036 37.7214C77.4008 39.7945 76.2632 41.7253 74.3121 42.9691C73.3877 43.5584 73.6548 43.6483 74.7932 43.1309C76.4137 42.3948 77.838 40.576 78.229 38.7441L78.3639 38.1121L78.7934 38.9579C80.165 41.6587 80.7822 44.3715 80.6437 47.0897C80.5581 48.7665 80.4946 49.042 80.0623 49.609C79.521 50.3192 78.8885 50.6952 77.4054 51.1881L76.4014 51.5216L77.6792 51.4222C78.464 51.361 79.1908 51.1847 79.563 50.9654L80.1689 50.608L80.0423 51.0205C79.1472 53.9384 77.6933 56.1875 73.3988 61.2973C71.007 64.1434 70.0824 65.3063 69.8403 65.7729C69.7622 65.9236 70.0564 65.6382 70.4942 65.1388C70.9321 64.6394 72.4131 62.9818 73.7854 61.4553C76.5463 58.3848 78.0967 56.4848 79.0216 55.0388C79.3584 54.5124 79.676 54.0816 79.7275 54.0816C79.8805 54.0816 79.5906 56.4639 79.2954 57.6308C79.1447 58.2264 78.811 59.1295 78.5535 59.6375C77.962 60.8061 78.4464 60.4386 79.1129 59.2133C79.8249 57.9039 80.326 55.7441 80.326 53.9841C80.326 53.0811 80.4403 52.1652 80.6128 51.6842C81.3495 49.6308 81.6491 45.6486 81.25 43.2131L81.1004 42.3005L83.0406 44.3189C84.3202 45.6499 85.1537 46.6915 85.4885 47.3778C85.7676 47.9503 86.0273 48.4187 86.0651 48.4187C86.1029 48.4187 86.029 47.9662 85.9008 47.4132C85.6124 46.1718 85.1501 45.4615 83.3578 43.5082C81.5543 41.5424 81.1537 40.9459 79.8157 38.2351C79.2082 37.0048 78.1667 35.1663 77.5012 34.1496C76.8356 33.1331 76.3237 32.2689 76.3634 32.229C76.4633 32.1291 77.7392 32.592 78.6602 33.062C79.0797 33.2763 79.962 33.9093 80.621 34.4686C81.8575 35.5184 81.9291 35.3645 80.809 34.0633C79.7903 32.8795 77.9793 31.4886 73.5721 28.5052C69.6886 25.876 67.5009 24.2695 67.0278 23.699C66.8505 23.4852 67.182 23.4436 69.1452 23.4335C70.4681 23.4267 72.0245 23.304 72.7505 23.1491C74.0444 22.8731 75.1418 22.5154 75.0121 22.412C74.973 22.3808 74.2546 22.4401 73.4156 22.5435C69.888 22.9786 63.3685 21.9354 60.3815 20.4579C59.5195 20.0316 59.3614 19.9968 59.505 20.2655ZM42.3781 21.2054C42.6332 21.592 44.9395 23.016 45.3238 23.0238C45.3992 23.0254 45.4607 22.8272 45.4607 22.5833C45.4607 22.1966 45.2682 22.0657 43.9548 21.5598C43.1266 21.2407 42.3666 20.9299 42.2662 20.8693C42.1658 20.8085 42.2162 20.9597 42.3781 21.2054ZM49.5679 21.5675C48.4916 21.9988 48.281 22.1542 48.2324 22.5532C48.1613 23.1369 48.1764 23.1369 49.3368 22.5483C50.4264 21.9959 51.302 21.3797 51.302 21.1656C51.302 20.9331 50.9428 21.0164 49.5679 21.5675ZM11.211 25.2089C12.4179 25.4891 12.3952 25.6355 10.922 27.0789C9.594 28.3798 8.13639 30.3513 7.32883 31.9385C7.10978 32.3691 6.85934 32.6773 6.77209 32.6234C6.51233 32.4626 6.03188 30.866 6.03188 30.163C6.03188 29.8034 6.10873 29.2412 6.20274 28.9132C6.29656 28.5855 6.31719 28.3516 6.24838 28.3932C6.17956 28.435 5.43187 28.8888 4.58707 29.4016C3.53308 30.0411 2.85512 30.3338 2.42688 30.3338H1.80277L2.37577 29.6097C2.69102 29.2114 3.32407 28.5552 3.78261 28.1511C4.49452 27.524 4.56644 27.4015 4.27456 27.3128C4.08654 27.2559 3.5694 27.03 3.12528 26.8112L2.31791 26.4131L3.6729 25.995C6.42726 25.1446 9.53735 24.8204 11.211 25.2089ZM44.182 26.4824L46.828 27.9256L48.4717 27.0198C49.3759 26.5217 50.6144 25.8609 51.224 25.5518L52.3328 24.9896L54.4828 26.235C56.3575 27.3213 56.5807 27.4997 56.2266 27.6309C55.4298 27.9257 54.36 28.9487 53.3711 30.3609C52.4506 31.6755 52.3148 31.7952 51.7432 31.7952C51.2255 31.7952 51.1195 31.8624 51.1195 32.1901C51.1195 32.9062 50.2374 34.1365 49.3518 34.656C48.6693 35.0562 48.2217 35.1661 47.0291 35.2262C45.6818 35.2937 45.4654 35.2546 44.5673 34.7808C43.4727 34.2032 43.0059 33.6767 42.6401 32.6066C42.4271 31.9838 42.3112 31.8784 41.7824 31.8266C41.2628 31.7756 41.0646 31.6037 40.4616 30.6814C39.5635 29.3069 38.5468 28.2558 37.6908 27.8163L37.0224 27.4731L39.0968 26.2592C40.2375 25.5914 41.2531 25.0438 41.3535 25.0422C41.4539 25.0407 42.7268 25.6887 44.182 26.4824ZM88.3576 25.5727C90.9063 26.2192 91.1418 26.3137 90.9071 26.5964C90.7945 26.7326 90.4 26.9414 90.0321 27.0602C89.6633 27.1791 89.3023 27.3101 89.2301 27.3514C89.157 27.3927 89.7312 28.0602 90.5066 28.8346L91.9154 30.2424L91.3163 30.3002C90.7395 30.3559 89.616 29.8285 87.8462 28.6706L87.2436 28.2764L87.3897 28.8028C87.6536 29.7488 87.5324 31.2948 87.1353 32.0595L86.7614 32.7803L86.4381 32.1508C85.6641 30.6436 83.9661 28.3248 82.725 27.0801C81.8159 26.1686 81.4417 25.6734 81.5671 25.5479C82.1819 24.9326 85.8886 24.9461 88.3576 25.5727ZM44.548 29.5889V30.3058L45.1026 30.0289C46.0885 29.5368 46.2555 29.7695 46.1429 31.4795C46.0885 32.3061 45.9861 33.1263 45.9153 33.3023C45.8019 33.5845 45.9091 33.6219 46.8298 33.6219C47.7532 33.6219 47.8573 33.5854 47.7366 33.3023C47.6618 33.1263 47.5608 32.2634 47.5123 31.3841C47.4154 29.6299 47.4289 29.6115 48.4784 30.0504L49.1115 30.3151V29.5938V28.8723H46.8298H44.548V29.5889ZM33.7115 30.8951C33.447 31.1032 33.2304 31.3498 33.2304 31.4432C33.2304 31.5374 34.1401 31.6101 35.2841 31.6072L37.3376 31.6017L36.7415 31.0592C36.2364 30.5994 35.9963 30.5164 35.1689 30.5164C34.4573 30.5164 34.0619 30.6191 33.7115 30.8951ZM56.9181 31.0592L56.3219 31.6017L58.3819 31.6072C60.3781 31.6123 60.436 31.6013 60.2487 31.2513C59.9632 30.7176 59.4675 30.5164 58.4361 30.5164C57.6692 30.5164 57.4138 30.6077 56.9181 31.0592ZM209.838 33.2659C203.588 34.1012 199.583 37.8396 199.223 43.1761C198.751 50.168 205.523 55.2075 214.165 54.2954C219.541 53.728 223.442 51.0996 224.923 47.0486C225.252 46.1517 225.325 45.5545 225.329 43.7604C225.333 41.8058 225.28 41.4322 224.842 40.3121C223.463 36.7924 220.435 34.4001 216.272 33.5441C214.474 33.1744 211.49 33.0452 209.838 33.2659ZM112.636 36.362V39.1022H116.925H121.215V46.4092V53.7163H124.409H127.605V46.4126V39.1088L131.939 39.0598L136.275 39.0109L136.325 36.3164L136.376 33.6219H124.506H112.636V36.362ZM138.922 43.6691V53.7163H142.025H145.128V43.6691V33.6219H142.025H138.922V43.6691ZM149.874 43.6691V53.7163H152.704H155.532V48.2208C155.532 45.1983 155.598 42.7526 155.677 42.7862C155.756 42.8197 158.2 45.2898 161.108 48.2753L166.394 53.7035L169.086 53.7098L171.779 53.7163V43.6691V33.6219H168.952H166.125L166.077 39.1373L166.029 44.6525L160.736 39.1382L155.441 33.6239L152.658 33.6228L149.874 33.6219V43.6691ZM176.525 43.6691V53.7163H179.537H182.549V49.9714V46.2266L183.508 46.2439L184.465 46.2615L188.014 49.9888L191.563 53.7163H195.65H199.738L194.748 48.592C192.005 45.7737 189.735 43.4002 189.706 43.3175C189.677 43.2349 191.849 41.0195 194.534 38.3945L199.415 33.6219H195.574H191.732L187.946 37.4678L184.159 41.3137L183.399 41.2583L182.64 41.203L182.591 37.4125L182.541 33.6219H179.533H176.525V43.6691ZM228.367 43.6691V53.7163H231.379H234.391V50.2455V46.7746H241.053H247.716V44.5847V42.395L241.099 42.3469L234.482 42.299V40.5636V38.8282L241.555 38.7803L248.629 38.7326V36.1772V33.6219H238.498H228.367V43.6691ZM251.367 43.6691V53.7163H254.47H257.573V50.2455V46.7746H264.144H270.716V44.5825V42.3904H264.144H257.573V40.5636V38.7368H264.601H271.629V36.1794V33.6219H261.498H251.367V43.6691ZM42.4714 34.9779C42.8252 35.3219 43.6397 35.8321 44.2814 36.1118C45.1329 36.4832 45.5039 36.7564 45.6564 37.1246C45.7712 37.4019 45.9795 37.7237 46.1193 37.8398C46.259 37.9559 46.3734 38.3722 46.3734 38.7652C46.3734 39.1579 46.4855 39.7476 46.6224 40.0757C46.8918 40.7209 47.8863 41.6597 48.3003 41.6597C48.4412 41.6597 48.7229 41.9861 48.9263 42.3851C49.1296 42.784 49.5051 43.2201 49.7603 43.354L50.2247 43.5973L49.4561 44.4708C49.0336 44.9514 48.4971 45.4171 48.2642 45.5057C47.9984 45.6069 46.7768 45.5523 44.9883 45.3594C42.3922 45.0795 42.1228 45.0169 41.9884 44.6631C41.8074 44.1868 40.8811 43.7774 40.2552 43.8971C39.8912 43.9667 39.8129 43.9227 39.8874 43.6903C39.9392 43.5279 40.4239 42.1646 40.9644 40.6608L41.947 37.9265L41.3244 36.5593C40.9821 35.8074 40.6822 35.1726 40.658 35.1486C40.634 35.1244 40.0825 35.5546 39.4323 36.1045C38.0273 37.293 38.0021 37.3777 37.9871 40.9747C37.9809 42.4612 37.9046 43.4865 37.8002 43.4865C37.7033 43.4865 37.3353 43.3487 36.9828 43.1804C36.3739 42.89 36.3227 42.8918 35.9637 43.2168C35.6895 43.4652 35.6007 43.7362 35.6402 44.2046C35.6853 44.7376 35.79 44.8817 36.2424 45.0335C36.5436 45.1345 36.8402 45.2867 36.9014 45.3716C36.9627 45.4566 36.9758 46.1637 36.9306 46.9428C36.8367 48.5555 37.0538 48.9667 37.998 48.9667C38.4108 48.9667 38.6158 48.8351 38.8522 48.4183C39.023 48.1169 39.2452 47.9001 39.3456 47.9366C41.5205 48.7294 48.2948 50.6599 48.8776 50.6532C49.7258 50.6431 50.2382 50.3442 51.8497 48.9202C52.7936 48.0858 52.8569 48.0579 52.9095 48.4541C53.0269 49.3407 53.3532 50.0703 53.7842 50.4095C54.1745 50.7168 54.2167 50.8579 54.1128 51.5084L53.9934 52.2549H42.8818H31.7702V44.7121C31.7702 37.1174 31.7656 37.0494 31.1145 34.7636L30.9975 34.3526H36.4127H41.828L42.4714 34.9779ZM62.513 34.7636C61.9252 36.6043 61.8938 37.1027 61.8916 44.6282L61.8894 52.2549H60.9803C60.1136 52.2549 60.0553 52.2231 59.723 51.5698C59.5313 51.1931 59.2687 50.5304 59.1395 50.0974C58.9552 49.4804 58.8689 49.3733 58.7406 49.6027C58.5865 49.8782 58.7661 51.1486 59.0717 51.9455C59.1856 52.2426 59.0954 52.2691 58.1395 52.2191L57.0809 52.1635L56.8481 51.4328C56.7202 51.0309 56.5188 50.3322 56.4012 49.88C56.1967 49.096 56.1786 49.0793 56.0112 49.5147C55.8444 49.9487 55.9073 50.9477 56.1582 51.8439C56.2628 52.2176 56.2109 52.2549 55.5879 52.2549H54.9026L55.0211 51.2452C55.1226 50.381 55.0934 50.2193 54.8181 50.1219C54.4593 49.9951 53.6751 49.3313 53.6751 49.1541C53.6751 49.0915 53.9529 49.0725 54.2924 49.1121C55.0934 49.2058 55.2944 48.8752 54.5865 48.6282C54.0768 48.4505 53.6751 47.8405 53.6751 47.2448C53.6751 47.1148 53.8795 46.7068 54.1292 46.3384L54.5836 45.6685L54.0407 45.5599C53.142 45.38 52.5798 44.7186 52.5798 43.8412C52.5798 43.3017 52.45 42.9282 52.1307 42.5484C51.5686 41.8798 51.3734 40.908 51.6614 40.2118C51.8292 39.8067 51.8303 39.5901 51.6666 39.2838C51.549 39.0641 51.4805 38.4471 51.5143 37.9128L51.5759 36.9415L50.9132 36.8358C50.5487 36.7776 50.065 36.5798 49.8382 36.396L49.4261 36.062L49.975 35.8345C50.2769 35.7094 50.7973 35.3246 51.1314 34.9797L51.7387 34.3526H57.1915H62.6442L62.513 34.7636ZM55.6631 34.992C55.5153 36.3094 56.6676 37.6408 57.9556 37.6408C58.7481 37.6408 58.4788 37.1673 57.3715 36.6132C56.615 36.2347 56.2329 35.9096 56.0028 35.4486C55.8272 35.097 55.6745 34.8915 55.6631 34.992ZM40.8515 37.2082L41.2175 38.0544L40.2817 40.7547C39.7667 42.2398 39.3193 43.4289 39.2873 43.3971C39.2554 43.3655 39.325 42.6839 39.442 41.8827C39.7607 39.701 39.5792 39.5249 39.0243 41.477L38.5311 43.2124L38.6304 40.4722L38.7297 37.7321L39.4717 37.0471C39.8801 36.6704 40.2751 36.362 40.3498 36.362C40.4244 36.362 40.6502 36.7427 40.8515 37.2082ZM48.9523 36.665C49.09 36.8317 49.5279 37.1137 49.9251 37.292C50.5954 37.5927 50.6627 37.6923 50.8583 38.6717C50.9987 39.3757 51.0112 39.9356 50.8962 40.353C50.7807 40.7717 50.7922 41.2512 50.9309 41.8029C51.06 42.3154 51.0737 42.6919 50.9675 42.7983C50.6432 43.1227 49.6759 42.4068 49.1146 41.4273C48.8136 40.9021 48.5666 40.5779 48.5655 40.707C48.5629 41.0943 47.8632 40.6206 47.4596 39.9582C46.9614 39.1406 46.9841 38.676 47.5143 38.837C48.179 39.0386 48.2651 39.026 48.3333 38.7168C48.375 38.5282 48.1975 38.3397 47.8385 38.1908C47.3208 37.9762 46.275 36.9477 46.4234 36.7992C46.4592 36.7634 46.9349 36.66 47.4806 36.5694C48.0261 36.4788 48.5241 36.3951 48.5873 36.3834C48.6503 36.3718 48.8145 36.4984 48.9523 36.665ZM214.195 38.2781C217.834 39.0496 219.773 42.1034 218.77 45.4829C218.371 46.8299 216.823 48.3961 215.315 48.9801C214.418 49.3272 213.872 49.404 212.303 49.404C210.023 49.404 208.805 49.0122 207.494 47.858C206.282 46.7892 205.67 45.4255 205.671 43.7877C205.673 40.9704 207.408 38.9201 210.326 38.2864C211.84 37.9575 212.674 37.9557 214.195 38.2781ZM58.4227 41.0413C58.4208 41.9475 58.8914 42.6156 59.8915 43.1262C60.7912 43.5854 61.1592 43.5839 61.1592 43.121C61.1592 42.9202 61.069 42.7557 60.9586 42.7557C60.3318 42.7557 59.4508 42.0802 58.9593 41.2225L58.4246 40.2896L58.4227 41.0413ZM56.5965 43.5961C56.5973 44.3759 57.2368 45.2911 58.0287 45.6458C58.4109 45.8172 58.6924 46.0514 58.6542 46.1663C58.6159 46.2812 58.7091 46.6735 58.8614 47.0382C59.1905 47.8266 60.1604 48.324 61.0057 48.1383C61.8055 47.9626 61.6269 47.4302 60.744 47.3572C59.8862 47.2859 59.443 46.6966 59.5508 45.7711C59.6175 45.1993 59.5796 45.1305 59.197 45.1305C58.5129 45.1305 57.7269 44.6288 57.1397 43.8178L56.5957 43.0663L56.5965 43.5961ZM51.8497 44.0203C51.8497 44.7933 52.4803 45.7471 53.1271 45.9523C53.4242 46.0468 53.446 46.129 53.2735 46.5077C53.1623 46.7521 52.8785 47.0786 52.643 47.233C52.2261 47.5062 52.2147 47.4989 52.2147 46.9594C52.2147 46.2976 51.6025 44.9285 51.1049 44.4778C50.7524 44.1586 50.7527 44.151 51.1485 43.7295C51.7065 43.1351 51.8497 43.1945 51.8497 44.0203ZM37.167 44.3662C36.388 44.4317 36.2424 44.3533 36.3966 43.9511C36.4925 43.7009 36.5799 43.705 37.1795 43.989L37.8544 44.3085L37.167 44.3662ZM39.3759 44.8172C39.5933 44.9392 39.9495 45.2666 40.1672 45.5445C40.4879 45.9536 40.5397 46.188 40.4403 46.7775C40.2338 48.0003 39.3067 47.5827 39.2173 46.2266C39.1636 45.4115 39.1578 45.4049 38.538 45.4552C37.9789 45.5006 37.6227 45.2925 37.6142 44.9155C37.6069 44.5905 38.8485 44.5213 39.3759 44.8172ZM41.0797 44.8565C41.0797 45.1969 40.762 45.1969 40.167 44.8565L39.7107 44.5955L40.3952 44.5889C40.8848 44.5843 41.0797 44.6605 41.0797 44.8565ZM55.3195 45.368C55.3161 46.7802 56.376 47.8686 57.7561 47.8699C58.3233 47.8704 58.4386 47.8144 58.3494 47.5817C58.2884 47.4227 58.2386 47.2583 58.2386 47.2163C58.2386 47.1742 58.0104 47.1399 57.7316 47.1399C57.0153 47.1399 56.4893 46.712 55.8636 45.6199L55.3214 44.6738L55.3195 45.368ZM50.7422 45.9328C51.1996 46.6735 51.469 47.8701 51.2885 48.3588C51.2112 48.5677 50.9156 48.9036 50.6317 49.1051L50.1155 49.4717L50.1035 48.3514C50.0949 47.5645 49.969 46.9951 49.6801 46.4376C49.2899 45.6842 49.2849 45.6261 49.583 45.2964C49.9476 44.8932 50.1784 45.02 50.7422 45.9328ZM42.5153 45.676C42.7086 45.678 42.735 45.8721 42.634 46.5461C42.4277 47.924 42.2027 48.2088 41.4745 48.0144C41.0027 47.8886 40.893 47.7821 40.9881 47.5416C41.0557 47.3708 41.1519 46.9435 41.2021 46.5919C41.3517 45.5439 41.4147 45.4451 41.8578 45.564C42.0824 45.6242 42.3783 45.6747 42.5153 45.676ZM44.7667 46.7746C44.7362 47.2267 44.625 47.8704 44.5194 48.2053C44.3493 48.7445 44.2722 48.8005 43.8443 48.6947C43.5787 48.6291 43.3089 48.5197 43.2445 48.4513C43.1802 48.3833 43.2591 47.7686 43.4199 47.0855C43.7072 45.8663 43.7225 45.8447 44.2671 45.8981C44.8043 45.9509 44.82 45.9785 44.7667 46.7746ZM38.6154 46.2266C38.5533 46.327 38.3891 46.4092 38.2503 46.4092C38.1116 46.4092 37.9473 46.327 37.8853 46.2266C37.8211 46.1226 37.9782 46.0439 38.2503 46.0439C38.5226 46.0439 38.6797 46.1226 38.6154 46.2266ZM46.4497 46.1548C46.7992 46.289 46.8502 47.8606 46.5346 48.7667C46.3484 49.3015 46.2818 49.3412 45.7588 49.2292C45.4443 49.1618 45.1654 49.0879 45.1389 49.0648C45.1124 49.0416 45.2139 48.7279 45.3645 48.3675C45.5149 48.0071 45.6597 47.3372 45.6863 46.8789C45.7341 46.0521 45.8634 45.9296 46.4497 46.1548ZM48.7302 46.7203C49.0633 47.4521 49.1725 48.8039 48.9458 49.3892C48.776 49.8274 48.6592 49.8949 48.1534 49.8459C47.6726 49.7997 47.5727 49.7193 47.6275 49.4234C47.6647 49.2225 47.6985 48.4209 47.7027 47.6423C47.71 46.3123 47.7345 46.2266 48.108 46.2266C48.3626 46.2266 48.586 46.4038 48.7302 46.7203ZM38.6154 47.1399C38.5533 47.2404 38.348 47.3226 38.159 47.3226C37.9702 47.3226 37.7648 47.2404 37.7027 47.1399C37.6367 47.0331 37.8261 46.9573 38.159 46.9573C38.492 46.9573 38.6815 47.0331 38.6154 47.1399ZM38.3416 48.0551C38.3416 48.2443 37.8586 48.4225 37.7207 48.2842C37.4654 48.029 37.631 47.7272 37.9766 47.8176C38.1774 47.8703 38.3416 47.9772 38.3416 48.0551ZM61.8523 58.6942C61.7917 63.8358 61.76 64.2876 61.3958 65.1889C60.9338 66.3326 60.0715 67.5048 59.1825 68.1985C58.4211 68.7924 58.2946 68.7399 58.6815 67.9912C59.048 67.2816 59.0434 67.2343 58.6063 67.2343C58.3473 67.2343 58.0895 67.5403 57.7032 68.3063C57.2016 69.3006 57.0988 69.3948 56.2857 69.6078C55.8037 69.7341 54.0538 69.8979 52.3973 69.9719C49.8811 70.0844 49.2298 70.1736 48.4399 70.514C47.9201 70.7382 47.3558 71.0751 47.1861 71.2628C46.886 71.5948 46.8619 71.5919 46.2962 71.1602C45.1433 70.2802 44.4453 70.1197 41.0797 69.9604C38.2425 69.8263 36.5162 69.5841 36.5162 69.3204C36.5162 69.2715 36.7216 68.826 36.9726 68.3304C37.522 67.2453 37.5229 67.2343 37.0669 67.2343C36.8161 67.2343 36.5637 67.5132 36.2453 68.1418C35.9222 68.7801 35.7044 69.0183 35.512 68.9444C35.1741 68.8146 35.1744 68.5567 35.5122 67.965C35.8589 67.3582 35.849 67.2343 35.454 67.2343C35.2605 67.2343 35.0077 67.4762 34.8474 67.8147L34.5729 68.395L33.8179 67.6395C33.4028 67.2241 32.8829 66.5313 32.6626 66.1001C31.862 64.5329 31.7746 63.7709 31.7723 58.3288L31.7702 53.1682H46.8439H61.9175L61.8523 58.6942ZM38.6003 54.4297L39.6806 55.524L39.1479 56.2869C37.8531 58.1418 37.8921 58 38.494 58.6743C38.9858 59.225 39.0698 59.2561 39.5157 59.0528C39.783 58.931 40.2546 58.8312 40.5641 58.8312C41.1226 58.8312 41.1256 58.8363 41.0034 59.6007C40.9359 60.0239 40.8638 60.3845 40.8432 60.4016C40.8227 60.419 40.2777 60.3597 39.632 60.2696C38.5179 60.1144 38.421 60.1317 37.7277 60.6102C37.3261 60.8878 36.7248 61.371 36.3917 61.6842C35.6537 62.3782 35.6053 63.1122 36.2197 64.2874L36.6369 65.0853L37.3068 64.4969C38.0758 63.821 38.1164 63.8692 37.6115 64.8595C37.1374 65.7893 37.1511 66.1207 37.694 66.8568L38.1413 67.4639L37.702 68.3316C37.4605 68.8088 37.3139 69.2503 37.3763 69.3128C37.6343 69.5711 37.9845 69.3928 38.2576 68.8643C38.4173 68.555 38.8354 67.9256 39.1862 67.4656C39.7302 66.7524 39.808 66.5321 39.7138 65.9726C39.6413 65.5425 39.6913 65.1956 39.859 64.9664C40.1103 64.623 40.1455 64.6228 41.7812 64.955L43.4475 65.2935L43.8832 64.8838C44.2952 64.4965 44.4173 64.481 46.1221 64.5981C47.8087 64.7141 49.042 64.5569 50.3893 64.0541C50.566 63.9882 50.8351 64.1957 51.1478 64.6392L51.6324 65.3264L50.8283 67.2343C50.386 68.2836 50.0242 69.2061 50.0242 69.2843C50.0242 69.3625 50.5005 69.4264 51.0824 69.4264H52.1406L52.9308 67.5009C53.3654 66.4418 53.7435 65.5992 53.7713 65.6284C53.7989 65.6576 53.6736 66.4625 53.4931 67.417C53.3125 68.3714 53.2023 69.2139 53.2481 69.2894C53.2941 69.3649 53.7747 69.4264 54.3165 69.4264C55.4407 69.4264 55.2641 69.7786 55.7706 66.5274C56.0421 64.7866 55.9931 64.4311 55.4172 63.9529C55.1491 63.7302 54.7641 62.6029 54.4947 61.2517C54.392 60.7378 54.426 60.658 54.7471 60.658C55.0087 60.658 55.314 60.9926 55.784 61.7951C56.9867 63.849 57.8814 64.6736 58.9091 64.6756C59.5141 64.6769 60.6116 63.9224 60.6116 63.5052C60.6116 63.3809 59.8371 62.4131 58.8904 61.3543C56.7324 58.9406 55.6262 58.4242 53.9023 59.0256C53.5045 59.1644 53.1303 59.1622 52.5952 59.0181C52.0384 58.868 51.5519 58.8716 50.7066 59.032C49.5849 59.2446 46.7809 59.2745 46.1326 59.0805C45.8173 58.9863 45.8167 58.9695 46.1209 58.7468C46.4247 58.5245 46.4213 58.4637 46.0534 57.5781C45.3406 55.8616 44.1272 54.7102 42.6769 54.3737C42.4009 54.3098 42.1737 54.1972 42.1723 54.1238C42.1706 54.0504 42.0928 53.8692 41.9992 53.721C41.8555 53.4936 41.7592 53.5176 41.3775 53.8765C40.7836 54.4347 40.3335 54.4267 38.798 53.831L37.5202 53.3352L38.6003 54.4297ZM42.4309 55.0655C43.0229 55.2142 44.1205 56.1713 44.4661 56.8397C44.6115 57.1212 44.8201 57.7697 44.9296 58.2806C45.0599 58.8884 45.2651 59.2953 45.5229 59.4569C45.7396 59.5928 46.7301 59.7599 47.7236 59.8286C49.1535 59.9272 49.7705 59.8882 50.681 59.6416C51.7009 59.3653 51.9205 59.3593 52.6163 59.5884C53.2579 59.7997 53.4847 59.8047 53.8576 59.6158C54.1086 59.4887 54.69 59.3834 55.1498 59.382C56.3297 59.3781 57.4272 60.1611 58.8028 61.988C59.8351 63.3592 59.8931 63.4858 59.5906 63.7072C58.947 64.1781 58.5728 63.9633 58.0913 62.8465C57.897 62.3963 57.5631 61.8713 57.349 61.6795L56.9597 61.3311L57.1592 61.904C57.5535 63.0358 57.212 62.8413 56.2697 61.3973C55.4493 60.1399 55.2369 59.9272 54.8016 59.9272C54.5215 59.9272 54.1484 60.0327 53.9722 60.1616C53.6683 60.3839 53.6725 60.4782 54.0554 62.0065C54.3063 63.0072 54.6316 63.8219 54.9145 64.1584C55.3661 64.6954 55.3681 64.7139 55.1507 66.2869C54.8409 68.5299 54.7865 68.6957 54.3615 68.6957C54.0299 68.6957 54.0042 68.6161 54.1108 67.9193C54.1759 67.4924 54.2796 66.7188 54.3412 66.2006L54.4528 65.2579L52.919 64.5254C52.0753 64.1224 51.2409 63.6332 51.0645 63.4383C50.7475 63.0877 50.7355 63.0881 49.9734 63.4693C49.2943 63.8091 48.8844 63.8548 46.5183 63.8548C44.1116 63.8548 43.8082 63.8899 43.5855 64.1947C43.3472 64.5202 43.2768 64.5223 41.9148 64.2404C39.7702 63.7966 39.6959 63.8119 39.2657 64.7853C38.988 65.4132 38.9414 65.7121 39.0809 65.9728C39.2089 66.2119 39.2059 66.4353 39.0718 66.6863C38.8244 67.1486 38.751 67.144 38.3314 66.6406C37.867 66.0837 37.889 65.8195 38.5165 64.4198L39.0564 63.2154H40.7982C41.796 63.2154 42.5401 63.1402 42.5401 63.0392C42.5401 62.9421 42.2936 62.4739 41.9925 61.9986C41.3778 61.0286 41.3444 60.6713 41.7223 59.1052C42.0461 57.7633 42.0529 57.6016 41.7734 57.8813C41.6529 58.0018 41.2411 58.1005 40.8581 58.1005C40.4754 58.1005 40.0099 58.1957 39.8236 58.3121C39.3937 58.5806 38.8893 58.3939 38.8893 57.9661C38.8893 57.7854 39.2755 57.1957 39.7476 56.6557L40.6059 55.6738L39.8845 55.0507L39.163 54.4274L39.8699 54.7113C40.8213 55.0933 41.1281 55.0692 41.4277 54.5893L41.6808 54.1837L41.8222 54.5659C41.8997 54.7762 42.1737 55.0009 42.4309 55.0655ZM40.8078 55.9055C40.6732 56.1234 40.844 56.4564 41.0905 56.4564C41.3127 56.4564 41.3141 55.962 41.0923 55.8249C40.9989 55.767 40.8709 55.8034 40.8078 55.9055ZM40.2861 60.9353C40.8534 61.0208 41.0695 61.1476 41.1458 61.4395C41.2019 61.654 41.2279 61.8492 41.2037 61.8735C41.1794 61.8978 40.6179 61.8248 39.9558 61.7113L38.7518 61.5048L37.9897 62.1089C37.3501 62.6159 37.2442 62.7903 37.3322 63.1926C37.4091 63.5437 37.3431 63.7305 37.0861 63.8908C36.7787 64.082 36.7073 64.0426 36.5136 63.5746C36.1785 62.7651 36.4143 62.2864 37.5662 61.4376C38.3186 60.8834 38.7445 60.6868 39.0718 60.7429C39.3228 60.7859 39.8691 60.8724 40.2861 60.9353ZM40.3496 62.3856L41.3535 62.6364L40.1344 62.6518C38.9416 62.6671 38.5211 62.846 38.2805 63.4405C38.2089 63.6175 38.1405 63.6076 37.9902 63.3981C37.8365 63.1838 37.9135 63.0147 38.3444 62.6218C38.9721 62.049 38.9924 62.0467 40.3496 62.3856ZM52.6375 64.8842C52.8567 64.9983 53.0659 65.1173 53.1024 65.1483C53.1388 65.1795 52.858 65.9905 52.4784 66.9505C51.8802 68.463 51.731 68.6957 51.36 68.6957C50.9353 68.6957 50.9342 68.6904 51.2235 68.0107C52.0229 66.132 52.235 65.4731 52.1622 65.0926C52.0709 64.6149 52.0974 64.6032 52.6375 64.8842ZM39.3835 68.243C38.7944 69.4456 38.7965 69.4264 39.241 69.4264C39.4907 69.4264 39.7287 69.129 40.0624 68.3996C40.6214 67.1777 40.6144 67.2343 40.205 67.2343C39.9898 67.2343 39.7089 67.5792 39.3835 68.243ZM40.9511 68.2339C40.4585 69.2386 40.465 69.5615 40.9732 69.3663C41.2042 69.2775 42.1749 67.6342 42.1749 67.3317C42.1749 67.2781 42.0098 67.2343 41.8079 67.2343C41.5447 67.2343 41.3025 67.5169 40.9511 68.2339ZM42.4981 68.2198C42.2324 68.762 42.0647 69.2553 42.1255 69.3159C42.428 69.6188 42.7679 69.3261 43.2702 68.3304L43.8231 67.2343H43.4022C43.0743 67.2343 42.8745 67.4522 42.4981 68.2198ZM44.1296 68.243C43.5384 69.4496 43.5409 69.4264 44.0028 69.4264C44.2734 69.4264 44.4895 69.1562 44.8242 68.399C45.3656 67.1737 45.359 67.2343 44.9511 67.2343C44.7358 67.2343 44.4549 67.5792 44.1296 68.243ZM45.6971 68.2339C45.2046 69.2386 45.211 69.5615 45.7192 69.3663C45.9503 69.2775 46.9211 67.6342 46.9211 67.3317C46.9211 67.2781 46.7558 67.2343 46.5539 67.2343C46.2907 67.2343 46.0485 67.5169 45.6971 68.2339ZM47.2442 68.2198C46.9786 68.762 46.8108 69.2553 46.8715 69.3159C47.174 69.6188 47.5139 69.3261 48.0162 68.3304L48.5692 67.2343H48.1483C47.8204 67.2343 47.6206 67.4522 47.2442 68.2198ZM48.8757 68.243C48.2864 69.4456 48.2887 69.4264 48.7331 69.4264C48.9829 69.4264 49.2209 69.129 49.5546 68.3996C50.1135 67.1777 50.1066 67.2343 49.6972 67.2343C49.4819 67.2343 49.201 67.5792 48.8757 68.243ZM55.9948 68.243C55.4035 69.4496 55.4061 69.4264 55.868 69.4264C56.1386 69.4264 56.3546 69.1562 56.6894 68.399C57.2307 67.1737 57.2242 67.2343 56.8162 67.2343C56.601 67.2343 56.3201 67.5792 55.9948 68.243ZM32.6438 73.9389L32.5916 75.7008L31.3138 76.2318C30.611 76.5239 29.8306 76.8452 29.5797 76.9457L29.1233 77.1288L29.7622 77.4727C30.8692 78.0686 34.8927 79.6011 36.719 80.1225L38.4736 80.6232L38.2843 81.2403C38.1631 81.6358 38.1582 81.9206 38.2708 82.0333C38.5762 82.3388 41.8066 82.9322 44.3934 83.1578C47.3287 83.4137 50.6491 83.1861 53.5838 82.5278C55.5268 82.0919 55.5923 82.0321 55.2542 81.0068C55.1374 80.6524 55.2695 80.5815 56.9112 80.1166C58.9299 79.545 62.3019 78.2769 63.6407 77.586L64.5363 77.1236L63.9886 76.9214C63.6874 76.8102 62.9071 76.494 62.2545 76.2187L61.0679 75.7183L61.0188 74.1707C60.992 73.3196 60.9356 72.5274 60.8936 72.41C60.8416 72.2647 60.3931 72.3704 59.4823 72.7429C57.6627 73.4867 54.5142 74.281 52.2763 74.5605C50.4361 74.7903 50.4205 74.7963 50.3136 75.3312C50.2371 75.7138 50.2931 75.9342 50.5061 76.0903C50.7498 76.2685 50.4306 76.3328 48.8133 76.4312C46.5856 76.5665 42.9052 76.3963 42.9052 76.1576C42.9052 76.0725 43.03 76.0028 43.1825 76.0028C43.3924 76.0028 43.4305 75.8807 43.3398 75.5004C43.1642 74.7655 43.1921 74.7827 41.9508 74.6466C39.319 74.3581 36.075 73.5437 33.6478 72.5621L32.696 72.177L32.6438 73.9389ZM38.4769 74.8979C39.4048 75.1257 40.1331 75.3649 40.0955 75.4292C40.0579 75.4934 39.7291 76.506 39.3648 77.6792L38.7025 79.8123L37.0161 79.3528C35.2214 78.864 31.6099 77.5595 31.3607 77.3102C31.2786 77.2279 31.7273 76.9587 32.358 76.7117L33.5043 76.2627L33.5573 74.8773L33.6101 73.4921L35.2001 73.9878C36.0745 74.2605 37.5493 74.6701 38.4769 74.8979ZM61.3017 76.7119C61.9323 76.9589 62.384 77.2194 62.3056 77.2912C61.8771 77.6834 56.6002 79.4778 55.2438 79.6924C54.947 79.7395 54.7961 79.4242 54.2205 77.5555C53.849 76.3498 53.5571 75.3464 53.5719 75.3256C53.5865 75.3048 54.7043 75.0017 56.0556 74.6523C57.4067 74.3027 58.841 73.9001 59.2425 73.7575L59.9727 73.4981L60.064 74.8806L60.1552 76.2632L61.3017 76.7119ZM44.0437 77.1275C46.0982 77.2897 47.3918 77.2889 49.5199 77.1242C51.0523 77.0056 52.4838 76.8615 52.7012 76.8038C53.0652 76.7072 53.1486 76.8663 53.7596 78.8248C54.1241 79.9939 54.4649 81.0609 54.5168 81.1957C54.5819 81.3658 54.3408 81.5044 53.7322 81.647C50.4908 82.4072 45.9518 82.6025 42.6023 82.1258C40.8428 81.8756 39.0718 81.5038 39.0718 81.385C39.0718 81.3228 40.3092 77.3244 40.4471 76.9412C40.5043 76.7815 40.6832 76.7322 40.945 76.8036C41.1697 76.865 42.5642 77.0108 44.0437 77.1275Z" fill="white"/>
</svg>
